<?xml version="1.0" encoding="UTF-8" standalone="no"?>
<!-- Generator: Adobe Illustrator 21.0.0, SVG Export Plug-In . SVG Version: 6.00 Build 0)  -->

<svg
   version="1.1"
   id="Layer_1"
   x="0px"
   y="0px"
   viewBox="0 0 201 198"
   style="enable-background:new 0 0 201 198;"
   xml:space="preserve"
   sodipodi:docname="MTS_TrolleyBus_icon.svg"
   inkscape:version="1.4.2 (f4327f4, 2025-05-13)"
   xmlns:inkscape="http://www.inkscape.org/namespaces/inkscape"
   xmlns:sodipodi="http://sodipodi.sourceforge.net/DTD/sodipodi-0.dtd"
   xmlns="http://www.w3.org/2000/svg"
   xmlns:svg="http://www.w3.org/2000/svg"><defs
   id="defs21" /><sodipodi:namedview
   id="namedview19"
   pagecolor="#ffffff"
   bordercolor="#000000"
   borderopacity="0.25"
   inkscape:showpageshadow="2"
   inkscape:pageopacity="0.0"
   inkscape:pagecheckerboard="0"
   inkscape:deskcolor="#d1d1d1"
   showgrid="false"
   inkscape:zoom="4.1868687"
   inkscape:cx="100.43305"
   inkscape:cy="99"
   inkscape:window-width="1920"
   inkscape:window-height="1017"
   inkscape:window-x="1358"
   inkscape:window-y="-8"
   inkscape:window-maximized="1"
   inkscape:current-layer="g16" />
<style
   type="text/css"
   id="style2">
	.st0{fill:#2aa9e0;}
	.st1{fill:#FFFFFF;}
</style>
<g
   id="g16">
	<path
   class="st0"
   d="M0,99.2C0,44.6,44.8,0.4,100.2,0.4s100.2,44.2,100.2,98.8c0,54.5-44.8,98.8-100.2,98.8S0,153.7,0,99.2"
   id="path4" />
	<path
   class="st1"
   d="m 105.23683,141.67122 h 16.56442 v 4.64944 8.35325 c 0,0 0.83582,3.8614 3.79918,3.8614 h 3.64722 c 2.96336,0 3.79918,-3.8614 3.79918,-3.8614 v -6.77716 -1.57609 -4.64944 c 9.57393,-0.94565 9.64991,-8.74726 9.64991,-8.74726 V 98.407736 c 0,-1.260867 -0.30393,-6.698354 -0.30393,-6.698354 l -2.35549,-27.502651 c -0.37992,-7.880416 -6.07869,-9.692912 -6.07869,-9.692912 -12.15738,-6.383137 -23.78287,-7.407591 -23.78287,-7.407591 h -6.38262 -4.559018 -6.458605 c 0,0 -11.625491,1.024454 -23.706884,7.486395 0,0 -5.774754,1.812496 -6.154672,9.692912 l -2.279508,27.502651 c 0,0 -0.303934,5.358683 -0.303934,6.698354 v 34.51622 c 0,0 0.151967,7.80161 9.649917,8.74726 v 4.64945 1.57608 6.77716 c 0,0 0.83582,3.8614 3.799181,3.8614 h 3.571229 c 2.96336,0 3.79918,-3.8614 3.79918,-3.8614 v -8.35324 -4.64945 h 16.564425 7.522379 z"
   id="path6"
   style="stroke-width:0.77381" />
	<path
   class="st0"
   d="m 71.95601,124.3343 c 3.039344,0 5.622787,-2.52173 5.622787,-5.67389 0,-3.23097 -2.583443,-5.75271 -5.622787,-5.75271 -3.115328,0 -5.69877,2.52174 -5.69877,5.75271 0,3.15216 2.583442,5.67389 5.69877,5.67389"
   id="path8"
   style="stroke-width:0.77381" />
	<path
   class="st0"
   d="m 131.07125,124.3343 c -3.11532,0 -5.62278,-2.52173 -5.62278,-5.67389 0,-3.23097 2.58344,-5.75271 5.62278,-5.75271 3.03935,0 5.69877,2.52174 5.69877,5.75271 -0.076,3.15216 -2.65942,5.67389 -5.69877,5.67389"
   id="path10"
   style="stroke-width:0.77381" />
	<path
   class="st0"
   d="m 106.22461,98.250128 h 25.45451 c 4.78697,0 5.24287,-5.6739 5.24287,-5.6739 0,0 -1.13975,-12.057036 -1.74762,-17.967348 -0.68385,-5.910312 -5.77476,-5.595095 -5.77476,-5.595095 H 106.07264 96.878632 73.551666 c 0,0 -5.090902,-0.315217 -5.774754,5.595095 -0.607869,5.831508 -1.747623,17.967348 -1.747623,17.967348 0,0 0.455902,5.6739 5.242869,5.6739 h 25.378523 z"
   id="path12"
   style="stroke-width:0.77381" />
	<path
   class="st0"
   d="m 120.47712,65.546402 c 2.50745,0 4.48303,-2.048909 4.48303,-4.570642 0,-2.364124 -1.89959,-4.491837 -4.48303,-4.491837 H 84.384902 c -2.431475,0 -4.407049,2.048908 -4.407049,4.491837 0,2.600538 1.975574,4.570642 4.407049,4.570642 z"
   id="path14"
   style="stroke-width:0.77381" />
</g>
<path
   style="fill:#ffffff;fill-opacity:1;stroke-width:0.77381"
   d="m 78.733399,55.829251 c 7.25923,-25.974004 7.25923,-25.974004 7.25923,-25.974004 l 4.718499,1.129305 -6.714788,23.150742"
   id="path309" /><path
   style="fill:#ffffff;fill-opacity:1;stroke-width:0.77381"
   d="m 112.30733,56.393903 c 7.25923,-25.974004 7.25923,-25.974004 7.25923,-25.974004 l 4.7185,1.129305 -6.71479,23.150742"
   id="path309-9" /></svg>
