<?xml version="1.0" encoding="utf-8"?>
<!-- Generator: Adobe Illustrator 21.0.0, SVG Export Plug-In . SVG Version: 6.00 Build 0)  -->
<svg version="1.1" id="Layer_1" xmlns="http://www.w3.org/2000/svg" xmlns:xlink="http://www.w3.org/1999/xlink" x="0px" y="0px"
	 viewBox="0 0 201 198" style="enable-background:new 0 0 201 198;" xml:space="preserve">
<style type="text/css">
	.st0{fill:#EE3124;}
	.st1{fill:#FFFFFF;}
</style>
<g>
	<path class="st0" d="M0,99.2C0,44.6,44.8,0.4,100.2,0.4s100.2,44.2,100.2,98.8c0,54.5-44.8,98.8-100.2,98.8S0,153.7,0,99.2"/>
	<path class="st1" d="M105.1,152.4h21.8v5.9v10.6c0,0,1.1,4.9,5,4.9h4.8c3.9,0,5-4.9,5-4.9v-8.6v-2v-5.9
		c12.6-1.2,12.7-11.1,12.7-11.1V97.5c0-1.6-0.4-8.5-0.4-8.5l-3.1-34.9c-0.5-10-8-12.3-8-12.3c-16-8.1-31.3-9.4-31.3-9.4h-8.4h-6
		h-8.5c0,0-15.3,1.3-31.2,9.5c0,0-7.6,2.3-8.1,12.3l-3,34.9c0,0-0.4,6.8-0.4,8.5v43.8c0,0,0.2,9.9,12.7,11.1v5.9v2v8.6
		c0,0,1.1,4.9,5,4.9h4.7c3.9,0,5-4.9,5-4.9v-10.6v-5.9h21.8H105.1z"/>
	<path class="st0" d="M61.3,130.4c4,0,7.4-3.2,7.4-7.2c0-4.1-3.4-7.3-7.4-7.3c-4.1,0-7.5,3.2-7.5,7.3
		C53.8,127.2,57.2,130.4,61.3,130.4"/>
	<path class="st0" d="M139.1,130.4c-4.1,0-7.4-3.2-7.4-7.2c0-4.1,3.4-7.3,7.4-7.3s7.5,3.2,7.5,7.3
		C146.5,127.2,143.1,130.4,139.1,130.4"/>
	<path class="st0" d="M106.4,97.3h33.5c6.3,0,6.9-7.2,6.9-7.2s-1.5-15.3-2.3-22.8c-0.9-7.5-7.6-7.1-7.6-7.1h-30.7H94.1H63.4
		c0,0-6.7-0.4-7.6,7.1c-0.8,7.4-2.3,22.8-2.3,22.8s0.6,7.2,6.9,7.2h33.4H106.4z"/>
	<path class="st0" d="M123.9,55.8c3.3,0,5.9-2.6,5.9-5.8c0-3-2.5-5.7-5.9-5.7H76.4c-3.2,0-5.8,2.6-5.8,5.7c0,3.3,2.6,5.8,5.8,5.8
		C76.4,55.8,123.9,55.8,123.9,55.8z"/>
</g>
</svg>
