<?xml version="1.0" encoding="UTF-8" standalone="no"?>
<svg
   viewBox="76 167 67 67"
   version="1.1"
   id="svg7"
   sodipodi:docname="MTS_Tram_icon.svg"
   inkscape:version="1.4.2 (f4327f4, 2025-05-13)"
   xmlns:inkscape="http://www.inkscape.org/namespaces/inkscape"
   xmlns:sodipodi="http://sodipodi.sourceforge.net/DTD/sodipodi-0.dtd"
   xmlns="http://www.w3.org/2000/svg"
   xmlns:svg="http://www.w3.org/2000/svg">
  <defs
     id="defs7" />
  <sodipodi:namedview
     id="namedview7"
     pagecolor="#ffffff"
     bordercolor="#666666"
     borderopacity="1.0"
     inkscape:showpageshadow="2"
     inkscape:pageopacity="0.0"
     inkscape:pagecheckerboard="0"
     inkscape:deskcolor="#d1d1d1"
     inkscape:zoom="12.164179"
     inkscape:cx="33.5"
     inkscape:cy="33.5"
     inkscape:window-width="1920"
     inkscape:window-height="1017"
     inkscape:window-x="1358"
     inkscape:window-y="-8"
     inkscape:window-maximized="1"
     inkscape:current-layer="g7" />
  <g
     fill="#ffa500"
     id="g7">
    <path
       d="m 109.42,167.131 c 18.27,0 33.07,14.819 33.07,33.08 0,18.27 -14.8,33.08 -33.07,33.08 -18.27,0 -33.08,-14.811 -33.08,-33.08 0,-18.261 14.81,-33.08 33.08,-33.08 z"
       id="path1"
       sodipodi:nodetypes="sssss" />
    <g
       fill="#ffffff"
       id="g3"
       transform="matrix(0.87744408,0,0,0.8466818,13.595272,29.456183)">
      <path
         d="m 127.03,197.611 v 15.47 c 0,0 -0.65,3.021 -3.23,3.021 h -4.53 v 1.79 h 2.08 l 0.79,1.939 h -1.95 l 1.08,2.37 h 1.95 l 0.93,1.94 h -2.08 l 1.15,2.3 h -2.38 l -1.07,-2.3 h -7.54 -4.6 -7.55 l -1.07,2.3 h -2.37 l 1.15,-2.3 H 95.7 l 0.94,-1.94 h 1.94 l 1.07,-2.37 h -1.94 l 0.8,-1.939 h 2.08 v -1.79 h -4.53 c -2.59,0 -3.24,-3.021 -3.24,-3.021 v -15.47 h 1.73 c 0,1.141 0.92,2.07 2.07,2.07 h 26.65 c 1.13,0 2.07,-0.93 2.07,-2.07 z m -1.66,10.57 c 0,-1.36 -1.09,-2.46 -2.45,-2.46 -1.37,0 -2.46,1.109 -2.46,2.46 0,1.36 1.09,2.46 2.46,2.46 1.36,0 2.45,-1.1 2.45,-2.46 z m -6.42,13.92 -1.08,-2.37 h -5.67 -4.47 -5.67 l -1.08,2.37 h 6.46 5.04 z m -1.87,-4.29 v -1.79 h -14.23 v 1.79 z m -17.6,-9.63 c 0,-1.351 -1.1,-2.46 -2.47,-2.46 -1.36,0 -2.46,1.1 -2.46,2.46 0,1.36 1.1,2.46 2.46,2.46 1.37,0 2.47,-1.1 2.47,-2.46 z"
         id="path2" />
      <path
         d="m 127.03,184.631 v 12.979 h -1.69 v -8.28 c 0,-1.14 -0.94,-2.06 -2.07,-2.06 H 96.62 c -1.14,0 -2.07,0.92 -2.07,2.06 v 8.28 h -1.73 v -12.979 c 0,-2.301 2.66,-3.38 2.66,-3.38 l 0.15,-0.07 c 0,0 4.16,-1.29 8.11,-1.22 l 4.67,-0.15 h 0.18 l -2.05,-4.02 h -2.3 c -0.3,0 -0.43,0.289 -0.43,0.289 l -0.51,0.94 h -1.44 c 0,0 0.37,-1.08 0.66,-1.59 0.28,-0.5 0.85,-0.93 0.85,-0.93 l 1.08,-0.07 h 5.11 0.72 5.09 l 1.09,0.07 c 0,0 0.56,0.43 0.85,0.93 0.29,0.51 0.66,1.59 0.66,1.59 h -1.43 l -0.51,-0.94 c 0,0 -0.14,-0.289 -0.42,-0.289 h -2.31 l -1.86,4.02 5.74,0.15 c 3.31,0.08 7.19,1.29 7.19,1.29 0,0 2.66,1.079 2.66,3.38 z m -8.88,-1.011 c 0,-1.04 -0.85,-1.899 -1.9,-1.899 h -12.86 c -1.05,0 -1.91,0.859 -1.91,1.899 0,1.051 0.86,1.9 1.91,1.9 h 12.86 c 1.05,10e-4 1.9,-0.849 1.9,-1.9 z m -8.04,-4.129 1.73,-3.81 h -1.51 -0.72 -1.51 l 1.71,3.81 z"
         id="path3" />
    </g>
  </g>
</svg>
