<?xml version="1.0" encoding="UTF-8" standalone="no"?>
<!DOCTYPE svg PUBLIC "-//W3C//DTD SVG 1.1//EN" "http://www.w3.org/Graphics/SVG/1.1/DTD/svg11.dtd">
<svg xmlns="http://www.w3.org/2000/svg" version="1.1" viewBox="0.00 0.00 242.00 222.00">
<g stroke-width="2.00" fill="none" stroke-linecap="butt">
<path stroke="#8ec7ff" vector-effect="non-scaling-stroke" d="
  M 76.69 63.41
  Q 75.56 90.09 74.03 116.75
  Q 73.86 119.75 74.04 122.75
  Q 75.44 146.20 76.74 169.69
  Q 76.77 170.31 76.21 170.07
  L 67.98 166.54
  A 0.49 0.48 20.4 0 0 67.32 166.84
  C 66.89 168.26 67.49 168.96 68.78 169.51
  Q 81.23 174.81 93.67 180.21
  Q 94.39 180.52 94.48 179.74
  L 94.63 178.45
  Q 94.69 177.89 94.17 177.67
  L 83.02 172.97
  Q 82.54 172.77 82.52 172.25
  Q 81.64 151.88 80.77 131.51
  Q 80.34 121.62 80.87 111.54
  Q 82.19 85.95 83.26 60.33
  A 0.81 0.81 0.0 0 1 83.75 59.62
  L 94.95 54.83
  Q 95.49 54.60 95.47 55.18
  L 93.12 118.74
  Q 93.10 119.20 93.54 119.33
  C 93.98 119.46 94.47 119.54 94.85 119.77
  Q 113.94 131.21 136.42 142.09
  C 140.26 143.94 142.16 141.10 145.02 139.11
  Q 145.43 138.83 145.91 138.84
  L 182.21 139.59
  Q 182.74 139.61 183.05 140.05
  C 185.01 142.89 187.36 143.21 190.50 141.61
  Q 195.73 138.94 200.97 136.18
  Q 201.41 135.95 201.42 135.45
  Q 201.70 125.58 201.45 122.76
  Q 199.75 104.02 197.19 85.39
  C 195.01 69.58 190.82 53.62 187.07 38.05
  A 3.07 3.06 -89.4 0 0 184.89 35.81
  Q 177.02 33.68 169.01 32.03
  Q 162.10 30.61 152.87 29.81
  C 140.18 28.71 128.68 27.27 115.06 27.96
  Q 112.86 28.07 110.92 29.20
  Q 90.35 41.17 69.67 52.99
  Q 64.98 55.67 60.86 59.17
  Q 46.63 71.23 32.25 83.12
  Q 31.84 83.47 31.83 84.00
  L 31.81 87.93
  Q 31.80 88.66 32.40 88.23
  L 37.12 84.81
  A 0.33 0.33 0.0 0 1 37.64 85.09
  L 36.09 111.99
  Q 36.05 112.54 35.50 112.64
  L 32.38 113.21
  Q 31.83 113.31 31.83 113.87
  L 31.82 119.56
  Q 31.82 120.05 32.31 120.05
  L 63.49 120.13
  Q 64.11 120.13 64.13 119.51
  L 65.84 68.24
  Q 65.86 67.51 66.52 67.21
  L 76.01 62.95
  Q 76.72 62.63 76.69 63.41"
/>
<path stroke="#8ec7ff" vector-effect="non-scaling-stroke" d="
  M 41.84 144.95
  A 1.63 1.63 0.0 0 1 44.07 143.69
  L 60.23 150.23
  Q 60.68 150.42 60.74 150.90
  Q 61.74 158.65 63.46 166.27
  Q 63.81 167.81 65.19 168.26
  A 0.57 0.56 -82.0 0 0 65.92 167.70
  L 64.32 122.09
  Q 64.30 121.62 63.84 121.62
  L 32.46 121.66
  Q 31.83 121.66 31.83 122.29
  L 31.79 149.47
  A 0.85 0.82 14.7 0 0 32.23 150.20
  L 39.71 154.32
  Q 40.31 154.65 40.42 153.97
  L 41.84 144.95"
/>
<path stroke="#8ec7ff" vector-effect="non-scaling-stroke" d="
  M 187.37 144.18
  Q 184.48 143.88 182.39 141.53
  Q 182.04 141.14 181.52 141.13
  L 146.17 140.42
  A 1.47 1.47 0.0 0 0 145.24 140.73
  C 142.60 142.78 140.17 145.52 136.50 143.77
  Q 115.38 133.72 95.17 121.67
  Q 94.24 121.11 93.60 122.38
  Q 93.36 122.86 93.43 124.25
  Q 94.80 152.29 96.11 180.33
  Q 96.14 180.81 96.53 181.07
  C 98.75 182.56 100.28 183.33 103.11 183.05
  C 112.40 182.10 121.45 180.46 130.83 180.15
  Q 137.15 179.94 143.46 179.55
  Q 144.02 179.52 144.03 178.96
  L 144.33 165.56
  Q 144.34 165.06 143.87 164.90
  C 136.93 162.54 138.47 153.20 146.19 153.21
  Q 169.19 153.27 192.21 153.49
  Q 194.66 153.52 195.89 154.75
  C 198.20 157.05 198.46 163.03 194.23 163.52
  Q 190.64 163.94 184.14 163.98
  Q 183.60 163.99 183.56 164.52
  L 182.53 177.46
  Q 182.50 177.91 182.95 177.90
  L 199.33 177.45
  A 2.50 2.50 0.0 0 0 201.76 174.92
  L 201.41 138.24
  Q 201.40 137.83 201.03 137.99
  Q 196.03 140.10 191.51 142.91
  Q 189.16 144.37 187.37 144.18"
/>
<path stroke="#8ec7ff" vector-effect="non-scaling-stroke" d="
  M 42.41 155.45
  L 61.06 165.76
  Q 61.66 166.09 61.58 165.41
  Q 61.45 164.16 60.24 163.46
  Q 51.67 158.46 42.78 154.03
  A 0.50 0.49 18.0 0 0 42.07 154.39
  L 42.03 154.64
  Q 41.93 155.18 42.41 155.45"
/>
<path stroke="#8ec7ff" vector-effect="non-scaling-stroke" d="
  M 180.70 178.05
  A 0.33 0.33 0.0 0 0 181.01 177.75
  L 182.01 164.49
  A 0.33 0.33 0.0 0 0 181.67 164.13
  L 146.13 165.25
  A 0.33 0.33 0.0 0 0 145.81 165.57
  L 145.43 179.18
  A 0.33 0.33 0.0 0 0 145.77 179.52
  L 180.70 178.05"
/>
<path stroke="#8ec7ff" vector-effect="non-scaling-stroke" d="
  M 119.28 40.60
  A 0.65 0.65 0.0 0 0 118.58 41.35
  L 121.84 61.47
  A 0.65 0.65 0.0 0 0 122.43 62.01
  L 189.22 67.13
  A 0.65 0.65 0.0 0 0 189.90 66.35
  L 186.04 47.88
  A 0.65 0.65 0.0 0 0 185.47 47.36
  L 119.28 40.60"
/>
<path stroke="#8ec7ff" vector-effect="non-scaling-stroke" d="
  M 110.46 43.75
  L 99.01 47.95
  A 1.14 1.13 -9.0 0 0 98.25 48.99
  L 96.37 103.52
  A 0.63 0.60 14.8 0 0 96.71 104.08
  L 116.69 113.87
  A 0.90 0.90 0.0 0 0 117.99 113.04
  Q 117.65 97.60 116.43 81.93
  C 115.51 70.09 113.11 56.87 111.53 44.41
  Q 111.41 43.41 110.46 43.75"
/>
<path stroke="#8ec7ff" vector-effect="non-scaling-stroke" d="
  M 95.4705 51.7887
  A 0.82 0.82 0.0 0 0 94.3893 51.3694
  L 66.2085 63.7986
  A 0.82 0.82 0.0 0 0 65.7892 64.8798
  L 65.8295 64.9713
  A 0.82 0.82 0.0 0 0 66.9107 65.3906
  L 95.0915 52.9614
  A 0.82 0.82 0.0 0 0 95.5108 51.8802
  L 95.4705 51.7887"
/>
<path stroke="#8ec7ff" vector-effect="non-scaling-stroke" d="
  M 192.53 90.41
  Q 193.05 91.09 192.33 92.06
  Q 183.00 104.64 173.95 117.45
  Q 173.60 117.95 174.21 117.99
  C 177.58 118.24 180.26 118.49 183.65 117.46
  Q 189.68 115.63 195.58 113.98
  A 1.28 1.28 0.0 0 0 196.51 112.62
  Q 195.25 100.51 194.01 88.32
  C 193.36 81.94 191.74 75.62 190.50 69.25
  Q 190.41 68.82 189.98 68.78
  L 122.95 63.63
  Q 122.33 63.58 122.37 64.20
  L 125.90 109.73
  A 2.44 2.44 0.0 0 0 127.66 111.89
  Q 133.42 113.52 139.22 115.46
  Q 142.84 116.67 146.40 116.86
  Q 156.30 117.40 166.34 117.60
  A 1.05 1.04 19.1 0 0 167.19 117.19
  L 188.63 88.90
  A 1.21 1.20 10.4 0 1 189.29 88.45
  Q 190.98 88.00 190.23 89.02
  Q 179.72 103.19 169.55 117.34
  A 0.38 0.38 0.0 0 0 170.09 117.86
  Q 171.50 116.80 172.59 115.36
  Q 181.73 103.23 191.32 90.41
  A 0.76 0.76 0.0 0 1 192.53 90.41"
/>
<path stroke="#8ec7ff" vector-effect="non-scaling-stroke" d="
  M 64.12 67.03
  A 0.70 0.70 0.0 0 0 63.01 66.43
  L 51.24 74.94
  A 0.70 0.70 0.0 0 0 50.95 75.49
  L 50.00 109.49
  A 0.70 0.70 0.0 0 0 50.81 110.20
  L 61.30 108.55
  A 0.70 0.70 0.0 0 0 61.89 107.89
  L 64.12 67.03"
/>
<path stroke="#8ec7ff" vector-effect="non-scaling-stroke" d="
  M 49.34 76.94
  A 0.34 0.34 0.0 0 0 48.81 76.65
  L 39.39 83.24
  A 0.34 0.34 0.0 0 0 39.24 83.50
  L 37.70 111.90
  A 0.34 0.34 0.0 0 0 38.10 112.25
  L 48.09 110.64
  A 0.34 0.34 0.0 0 0 48.38 110.32
  L 49.34 76.94"
/>
<path stroke="#8ec7ff" vector-effect="non-scaling-stroke" d="
  M 180.42 122.86
  L 180.72 134.26
  Q 180.73 134.76 180.24 134.76
  L 158.74 134.75
  Q 158.24 134.75 158.23 134.24
  L 157.98 122.24
  Q 157.97 121.70 158.51 121.71
  L 163.48 121.81
  A 0.77 0.77 0.0 0 0 163.58 120.27
  Q 160.14 119.86 156.85 120.46
  Q 156.35 120.55 156.36 121.06
  L 156.75 135.00
  A 1.28 1.28 0.0 0 0 158.03 136.24
  L 181.03 136.25
  A 1.26 1.26 0.0 0 0 182.29 134.96
  L 181.93 121.50
  A 0.71 0.71 0.0 0 0 181.24 120.81
  Q 176.72 120.73 172.23 120.66
  Q 171.11 120.64 170.60 121.58
  Q 170.32 122.11 170.92 122.12
  L 179.86 122.31
  Q 180.41 122.32 180.42 122.86"
/>
<path stroke="#8ec7ff" vector-effect="non-scaling-stroke" d="
  M 137.85 126.43
  C 136.34 123.75 134.50 119.65 131.38 120.89
  C 127.09 122.59 128.21 126.76 128.24 130.44
  C 128.29 136.37 133.19 139.61 138.80 139.68
  A 1.56 1.55 27.4 0 0 139.69 139.40
  C 144.98 135.60 139.99 130.21 137.85 126.43"
/>
<path stroke="#8ec7ff" vector-effect="non-scaling-stroke" d="
  M 191.31 123.00
  C 188.97 126.40 182.00 137.52 188.44 140.13
  Q 188.90 140.32 189.37 140.18
  C 192.31 139.31 195.98 137.84 196.93 134.56
  Q 198.79 128.13 194.77 122.91
  A 2.14 2.14 0.0 0 0 191.31 123.00"
/>
<path stroke="#8ec7ff" vector-effect="non-scaling-stroke" d="
  M 129.08 49.91
  A 1.21 1.21 0.0 0 1 129.45 47.53
  L 131.25 47.67
  A 0.66 0.66 0.0 0 0 131.97 47.05
  L 132.03 46.10
  A 0.67 0.67 0.0 0 0 131.34 45.39
  L 126.68 45.52
  A 0.69 0.69 0.0 0 0 126.01 46.17
  L 125.76 51.07
  A 0.87 0.86 -86.6 0 0 126.56 51.98
  L 129.86 52.23
  A 0.64 0.63 2.9 0 1 130.45 52.87
  L 130.41 55.99
  A 0.66 0.66 0.0 0 1 129.76 56.64
  L 126.42 56.68
  A 0.85 0.85 0.0 0 0 126.09 58.31
  C 132.12 60.89 134.18 55.38 131.95 50.95
  Q 131.73 50.52 131.26 50.41
  L 129.08 49.91"
/>
<path stroke="#8ec7ff" vector-effect="non-scaling-stroke" d="
  M 146.72 52.97
  L 146.96 50.33
  Q 147.00 49.89 146.60 49.70
  L 146.22 49.51
  A 0.33 0.32 -76.7 0 0 145.76 49.80
  L 145.61 57.50
  Q 145.60 58.17 145.01 57.83
  Q 144.33 57.44 143.47 57.58
  A 0.33 0.33 0.0 0 0 143.50 58.23
  L 146.21 58.40
  Q 146.62 58.43 146.67 58.02
  L 147.03 55.34
  A 0.51 0.51 0.0 0 1 148.03 55.31
  L 148.68 58.61
  A 0.69 0.69 0.0 0 0 149.49 59.16
  L 149.96 59.07
  A 0.27 0.27 0.0 0 0 150.16 58.68
  Q 148.10 54.47 149.87 50.35
  A 0.46 0.46 0.0 0 0 149.05 49.95
  L 147.35 53.15
  A 0.34 0.33 -28.6 0 1 146.72 52.97"
/>
<path stroke="#8ec7ff" vector-effect="non-scaling-stroke" d="
  M 153.19 54.14
  L 152.60 53.94
  Q 152.18 53.80 152.17 53.36
  L 152.06 50.31
  A 0.53 0.52 -45.4 0 0 151.01 50.32
  L 150.82 59.00
  A 0.59 0.55 -80.5 0 0 151.92 59.00
  L 151.98 56.11
  A 0.64 0.64 0.0 0 1 152.65 55.49
  L 153.36 55.53
  Q 154.17 55.58 154.10 56.38
  L 153.88 59.10
  Q 153.86 59.40 154.12 59.54
  L 154.41 59.68
  A 0.42 0.41 14.2 0 0 155.02 59.32
  L 155.20 50.76
  A 0.44 0.44 0.0 0 0 154.33 50.69
  L 153.89 53.71
  A 0.53 0.53 0.0 0 1 153.19 54.14"
/>
<path stroke="#8ec7ff" vector-effect="non-scaling-stroke" d="
  M 135.84 52.48
  Q 136.15 51.73 135.83 50.99
  A 0.52 0.51 34.0 0 0 134.84 51.18
  L 134.76 57.16
  Q 134.75 57.57 135.16 57.59
  L 135.48 57.60
  Q 135.87 57.62 135.89 57.22
  L 135.97 55.50
  A 0.41 0.41 0.0 0 1 136.49 55.12
  Q 136.82 55.22 136.98 55.55
  Q 137.09 55.76 137.07 56.42
  Q 137.03 57.53 138.20 57.84
  A 0.40 0.39 -8.3 0 0 138.64 57.25
  Q 136.78 54.34 138.48 51.53
  Q 138.70 51.16 138.27 51.15
  L 137.98 51.14
  A 0.60 0.59 -78.9 0 0 137.41 51.53
  Q 137.08 52.40 136.34 52.89
  A 0.34 0.34 0.0 0 1 135.84 52.48"
/>
<path stroke="#8ec7ff" vector-effect="non-scaling-stroke" d="
  M 158.00 56.70
  A 0.71 0.70 -34.6 0 1 159.38 56.95
  L 159.15 59.73
  A 0.50 0.49 4.0 0 0 159.62 60.26
  Q 159.92 60.27 160.14 60.11
  Q 160.41 59.91 160.47 59.30
  Q 160.81 55.53 160.60 51.75
  A 0.58 0.57 -88.9 0 0 160.09 51.21
  L 157.67 50.96
  A 0.70 0.69 -68.8 0 0 157.02 51.25
  Q 155.42 53.53 156.90 55.60
  A 0.84 0.82 -55.2 0 1 157.02 56.33
  L 156.02 59.62
  Q 155.95 59.85 156.19 59.90
  Q 156.36 59.93 156.54 59.96
  A 0.53 0.52 -75.7 0 0 157.15 59.59
  L 158.00 56.70"
/>
<path stroke="#8ec7ff" vector-effect="non-scaling-stroke" d="
  M 142.56 54.27
  Q 143.41 52.96 142.04 51.45
  A 1.70 1.70 0.0 0 0 139.08 52.60
  L 139.08 56.95
  Q 139.09 57.56 139.62 57.86
  Q 141.84 59.09 142.87 57.03
  Q 143.14 56.50 142.90 55.95
  L 142.50 55.03
  Q 142.33 54.63 142.56 54.27"
/>
<path stroke="#8ec7ff" vector-effect="non-scaling-stroke" d="
  M 165.04 57.10
  L 165.31 57.20
  Q 165.69 57.34 165.77 57.74
  Q 166.68 62.69 172.04 61.27
  Q 172.50 61.15 172.31 60.71
  Q 171.81 59.60 170.45 59.99
  A 0.58 0.57 -8.5 0 1 169.71 59.45
  L 169.67 57.93
  Q 169.66 57.43 170.16 57.46
  L 171.70 57.53
  A 0.52 0.52 0.0 0 0 171.93 56.54
  L 170.13 55.77
  Q 169.67 55.56 169.69 55.06
  L 169.73 54.12
  Q 169.77 53.38 170.48 53.60
  L 171.53 53.92
  A 0.73 0.73 0.0 0 0 172.07 52.57
  Q 170.95 52.03 169.31 52.23
  Q 168.68 52.31 168.67 52.94
  L 168.51 60.28
  A 0.19 0.18 -62.9 0 1 168.18 60.39
  Q 165.16 56.46 167.94 52.56
  Q 168.21 52.18 167.66 51.93
  A 0.52 0.50 27.4 0 0 167.00 52.13
  L 165.37 54.89
  A 0.29 0.29 0.0 0 1 164.83 54.73
  Q 164.88 53.58 165.24 52.48
  Q 165.34 52.19 165.29 52.03
  Q 165.23 51.79 165.03 51.68
  Q 164.53 51.40 164.33 51.93
  Q 163.93 53.04 164.14 54.30
  A 0.32 0.31 -58.7 0 1 163.53 54.45
  L 162.74 52.01
  Q 162.59 51.53 162.09 51.48
  Q 161.95 51.47 161.81 51.48
  Q 161.05 51.53 161.46 52.17
  Q 163.95 56.13 160.99 59.67
  Q 160.56 60.18 161.18 60.41
  Q 161.55 60.54 161.87 60.36
  Q 162.17 60.19 162.38 59.55
  Q 162.82 58.18 163.69 57.06
  Q 164.15 56.48 164.11 57.21
  L 163.95 60.28
  Q 163.92 60.84 164.47 60.77
  Q 164.76 60.73 164.82 60.41
  Q 165.13 58.80 164.93 57.20
  A 0.09 0.09 0.0 0 1 165.04 57.10"
/>
<path stroke="#8ec7ff" vector-effect="non-scaling-stroke" d="
  M 176.82 57.13
  L 177.50 55.36
  A 0.28 0.26 -43.2 0 0 177.51 55.20
  Q 176.77 52.21 173.76 52.77
  Q 173.33 52.86 173.32 53.30
  L 173.20 60.95
  Q 173.20 61.45 173.63 61.70
  C 176.60 63.44 178.48 60.31 176.92 57.98
  Q 176.65 57.58 176.82 57.13"
/>
<path stroke="#8ec7ff" vector-effect="non-scaling-stroke" d="
  M 180.5116 62.8100
  A 4.80 2.44 90.1 0 0 182.9600 58.0143
  A 4.80 2.44 90.1 0 0 180.5284 53.2100
  A 4.80 2.44 90.1 0 0 178.0800 58.0057
  A 4.80 2.44 90.1 0 0 180.5116 62.8100"
/>
<path stroke="#8ec7ff" vector-effect="non-scaling-stroke" d="
  M 158.65 52.29
  Q 156.52 52.77 157.94 54.81
  A 0.87 0.87 0.0 0 0 159.52 54.25
  L 159.42 52.87
  Q 159.37 52.13 158.65 52.29"
/>
<path stroke="#8ec7ff" vector-effect="non-scaling-stroke" d="
  M 140.71 52.59
  Q 140.15 52.46 140.05 53.02
  Q 139.84 54.21 141.38 53.86
  A 0.56 0.56 0.0 0 0 141.39 52.76
  L 140.71 52.59"
/>
<path stroke="#8ec7ff" vector-effect="non-scaling-stroke" d="
  M 141.94 56.47
  Q 141.93 55.04 140.54 55.06
  A 0.67 0.66 -82.6 0 0 139.90 55.56
  Q 139.80 55.93 139.99 56.32
  Q 140.12 56.61 140.46 56.74
  Q 141.09 56.98 141.67 56.82
  A 0.36 0.36 0.0 0 0 141.94 56.47"
/>
<path stroke="#8ec7ff" vector-effect="non-scaling-stroke" d="
  M 175.2677 56.7895
  A 1.35 1.01 88.4 0 0 176.2396 55.4118
  A 1.35 1.01 88.4 0 0 175.1923 54.0905
  A 1.35 1.01 88.4 0 0 174.2204 55.4682
  A 1.35 1.01 88.4 0 0 175.2677 56.7895"
/>
<path stroke="#8ec7ff" vector-effect="non-scaling-stroke" d="
  M 175.21 57.99
  Q 174.30 57.66 174.28 58.62
  L 174.26 59.86
  A 0.92 0.92 0.0 0 0 175.99 60.32
  Q 176.91 58.63 175.21 57.99"
/>
<path stroke="#8ec7ff" vector-effect="non-scaling-stroke" d="
  M 180.3998 61.3593
  A 3.35 1.22 91.2 0 0 181.6897 58.0355
  A 3.35 1.22 91.2 0 0 180.5402 54.6607
  A 3.35 1.22 91.2 0 0 179.2503 57.9845
  A 3.35 1.22 91.2 0 0 180.3998 61.3593"
/>
<path stroke="#8ec7ff" vector-effect="non-scaling-stroke" d="
  M 134.62 122.94
  C 132.98 120.35 129.33 121.95 129.27 124.68
  C 129.21 127.82 128.75 133.40 131.22 135.73
  Q 134.13 138.49 138.40 138.75
  Q 138.89 138.78 139.29 138.50
  C 141.39 137.00 141.67 135.19 140.41 132.85
  Q 137.68 127.77 134.62 122.94"
/>
<path stroke="#8ec7ff" vector-effect="non-scaling-stroke" d="
  M 34.4845 143.5214
  A 0.77 0.77 0.0 0 0 33.6651 142.8041
  L 33.5853 142.8094
  A 0.77 0.77 0.0 0 0 32.8680 143.6288
  L 33.1755 148.2586
  A 0.77 0.77 0.0 0 0 33.9949 148.9759
  L 34.0747 148.9706
  A 0.77 0.77 0.0 0 0 34.7920 148.1512
  L 34.4845 143.5214"
/>
<path stroke="#8ec7ff" vector-effect="non-scaling-stroke" d="
  M 99.5944 128.4190
  A 2.55 1.88 3.8 0 0 97.1746 126.3741
  A 2.55 1.88 3.8 0 0 94.5056 128.0810
  A 2.55 1.88 3.8 0 0 96.9254 130.1259
  A 2.55 1.88 3.8 0 0 99.5944 128.4190"
/>
<path stroke="#8ec7ff" vector-effect="non-scaling-stroke" d="
  M 132.0955 128.0493
  A 2.23 1.33 91.4 0 0 133.4796 125.8525
  A 2.23 1.33 91.4 0 0 132.2045 123.5907
  A 2.23 1.33 91.4 0 0 130.8204 125.7875
  A 2.23 1.33 91.4 0 0 132.0955 128.0493"
/>
<path stroke="#8ec7ff" vector-effect="non-scaling-stroke" d="
  M 133.5245 134.8284
  A 2.85 2.26 88.1 0 0 135.6888 131.9051
  A 2.85 2.26 88.1 0 0 133.3355 129.1316
  A 2.85 2.26 88.1 0 0 131.1712 132.0549
  A 2.85 2.26 88.1 0 0 133.5245 134.8284"
/>
<path stroke="#8ec7ff" vector-effect="non-scaling-stroke" d="
  M 137.7935 136.8543
  A 1.94 1.38 97.3 0 0 139.4088 135.1053
  A 1.94 1.38 97.3 0 0 138.2865 133.0057
  A 1.94 1.38 97.3 0 0 136.6712 134.7547
  A 1.94 1.38 97.3 0 0 137.7935 136.8543"
/>
<path stroke="#8ec7ff" vector-effect="non-scaling-stroke" d="
  M 196.37 131.25
  C 196.21 127.48 195.96 125.92 194.03 123.20
  A 0.70 0.70 0.0 0 0 193.05 123.04
  C 190.06 125.18 188.13 130.43 186.94 133.79
  C 186.16 136.00 186.37 138.01 188.53 139.09
  Q 188.96 139.31 189.42 139.17
  C 193.87 137.83 196.57 136.09 196.37 131.25"
/>
<path stroke="#8ec7ff" vector-effect="non-scaling-stroke" d="
  M 193.3612 128.5398
  A 2.06 1.29 90.8 0 0 194.6799 126.4980
  A 2.06 1.29 90.8 0 0 193.4188 124.4202
  A 2.06 1.29 90.8 0 0 192.1001 126.4620
  A 2.06 1.29 90.8 0 0 193.3612 128.5398"
/>
<path stroke="#8ec7ff" vector-effect="non-scaling-stroke" d="
  M 192.8608 134.9687
  A 2.39 1.93 91.9 0 0 194.8689 132.6440
  A 2.39 1.93 91.9 0 0 193.0192 130.1913
  A 2.39 1.93 91.9 0 0 191.0111 132.5160
  A 2.39 1.93 91.9 0 0 192.8608 134.9687"
/>
<path stroke="#8ec7ff" vector-effect="non-scaling-stroke" d="
  M 188.8389 137.1793
  A 1.80 1.33 100.6 0 0 190.4773 135.6547
  A 1.80 1.33 100.6 0 0 189.5011 133.6407
  A 1.80 1.33 100.6 0 0 187.8627 135.1653
  A 1.80 1.33 100.6 0 0 188.8389 137.1793"
/>
</g>
<path fill="#1e90ff" d="
  M 0.00 0.00
  L 242.00 0.00
  L 242.00 222.00
  L 0.00 222.00
  L 0.00 0.00
  Z
  M 76.69 63.41
  Q 75.56 90.09 74.03 116.75
  Q 73.86 119.75 74.04 122.75
  Q 75.44 146.20 76.74 169.69
  Q 76.77 170.31 76.21 170.07
  L 67.98 166.54
  A 0.49 0.48 20.4 0 0 67.32 166.84
  C 66.89 168.26 67.49 168.96 68.78 169.51
  Q 81.23 174.81 93.67 180.21
  Q 94.39 180.52 94.48 179.74
  L 94.63 178.45
  Q 94.69 177.89 94.17 177.67
  L 83.02 172.97
  Q 82.54 172.77 82.52 172.25
  Q 81.64 151.88 80.77 131.51
  Q 80.34 121.62 80.87 111.54
  Q 82.19 85.95 83.26 60.33
  A 0.81 0.81 0.0 0 1 83.75 59.62
  L 94.95 54.83
  Q 95.49 54.60 95.47 55.18
  L 93.12 118.74
  Q 93.10 119.20 93.54 119.33
  C 93.98 119.46 94.47 119.54 94.85 119.77
  Q 113.94 131.21 136.42 142.09
  C 140.26 143.94 142.16 141.10 145.02 139.11
  Q 145.43 138.83 145.91 138.84
  L 182.21 139.59
  Q 182.74 139.61 183.05 140.05
  C 185.01 142.89 187.36 143.21 190.50 141.61
  Q 195.73 138.94 200.97 136.18
  Q 201.41 135.95 201.42 135.45
  Q 201.70 125.58 201.45 122.76
  Q 199.75 104.02 197.19 85.39
  C 195.01 69.58 190.82 53.62 187.07 38.05
  A 3.07 3.06 -89.4 0 0 184.89 35.81
  Q 177.02 33.68 169.01 32.03
  Q 162.10 30.61 152.87 29.81
  C 140.18 28.71 128.68 27.27 115.06 27.96
  Q 112.86 28.07 110.92 29.20
  Q 90.35 41.17 69.67 52.99
  Q 64.98 55.67 60.86 59.17
  Q 46.63 71.23 32.25 83.12
  Q 31.84 83.47 31.83 84.00
  L 31.81 87.93
  Q 31.80 88.66 32.40 88.23
  L 37.12 84.81
  A 0.33 0.33 0.0 0 1 37.64 85.09
  L 36.09 111.99
  Q 36.05 112.54 35.50 112.64
  L 32.38 113.21
  Q 31.83 113.31 31.83 113.87
  L 31.82 119.56
  Q 31.82 120.05 32.31 120.05
  L 63.49 120.13
  Q 64.11 120.13 64.13 119.51
  L 65.84 68.24
  Q 65.86 67.51 66.52 67.21
  L 76.01 62.95
  Q 76.72 62.63 76.69 63.41
  Z
  M 41.84 144.95
  A 1.63 1.63 0.0 0 1 44.07 143.69
  L 60.23 150.23
  Q 60.68 150.42 60.74 150.90
  Q 61.74 158.65 63.46 166.27
  Q 63.81 167.81 65.19 168.26
  A 0.57 0.56 -82.0 0 0 65.92 167.70
  L 64.32 122.09
  Q 64.30 121.62 63.84 121.62
  L 32.46 121.66
  Q 31.83 121.66 31.83 122.29
  L 31.79 149.47
  A 0.85 0.82 14.7 0 0 32.23 150.20
  L 39.71 154.32
  Q 40.31 154.65 40.42 153.97
  L 41.84 144.95
  Z
  M 187.37 144.18
  Q 184.48 143.88 182.39 141.53
  Q 182.04 141.14 181.52 141.13
  L 146.17 140.42
  A 1.47 1.47 0.0 0 0 145.24 140.73
  C 142.60 142.78 140.17 145.52 136.50 143.77
  Q 115.38 133.72 95.17 121.67
  Q 94.24 121.11 93.60 122.38
  Q 93.36 122.86 93.43 124.25
  Q 94.80 152.29 96.11 180.33
  Q 96.14 180.81 96.53 181.07
  C 98.75 182.56 100.28 183.33 103.11 183.05
  C 112.40 182.10 121.45 180.46 130.83 180.15
  Q 137.15 179.94 143.46 179.55
  Q 144.02 179.52 144.03 178.96
  L 144.33 165.56
  Q 144.34 165.06 143.87 164.90
  C 136.93 162.54 138.47 153.20 146.19 153.21
  Q 169.19 153.27 192.21 153.49
  Q 194.66 153.52 195.89 154.75
  C 198.20 157.05 198.46 163.03 194.23 163.52
  Q 190.64 163.94 184.14 163.98
  Q 183.60 163.99 183.56 164.52
  L 182.53 177.46
  Q 182.50 177.91 182.95 177.90
  L 199.33 177.45
  A 2.50 2.50 0.0 0 0 201.76 174.92
  L 201.41 138.24
  Q 201.40 137.83 201.03 137.99
  Q 196.03 140.10 191.51 142.91
  Q 189.16 144.37 187.37 144.18
  Z
  M 42.41 155.45
  L 61.06 165.76
  Q 61.66 166.09 61.58 165.41
  Q 61.45 164.16 60.24 163.46
  Q 51.67 158.46 42.78 154.03
  A 0.50 0.49 18.0 0 0 42.07 154.39
  L 42.03 154.64
  Q 41.93 155.18 42.41 155.45
  Z
  M 180.70 178.05
  A 0.33 0.33 0.0 0 0 181.01 177.75
  L 182.01 164.49
  A 0.33 0.33 0.0 0 0 181.67 164.13
  L 146.13 165.25
  A 0.33 0.33 0.0 0 0 145.81 165.57
  L 145.43 179.18
  A 0.33 0.33 0.0 0 0 145.77 179.52
  L 180.70 178.05
  Z"
/>
<path fill="#fefeff" d="
  M 76.01 62.95
  L 66.52 67.21
  Q 65.86 67.51 65.84 68.24
  L 64.13 119.51
  Q 64.11 120.13 63.49 120.13
  L 32.31 120.05
  Q 31.82 120.05 31.82 119.56
  L 31.83 113.87
  Q 31.83 113.31 32.38 113.21
  L 35.50 112.64
  Q 36.05 112.54 36.09 111.99
  L 37.64 85.09
  A 0.33 0.33 0.0 0 0 37.12 84.81
  L 32.40 88.23
  Q 31.80 88.66 31.81 87.93
  L 31.83 84.00
  Q 31.84 83.47 32.25 83.12
  Q 46.63 71.23 60.86 59.17
  Q 64.98 55.67 69.67 52.99
  Q 90.35 41.17 110.92 29.20
  Q 112.86 28.07 115.06 27.96
  C 128.68 27.27 140.18 28.71 152.87 29.81
  Q 162.10 30.61 169.01 32.03
  Q 177.02 33.68 184.89 35.81
  A 3.07 3.06 -89.4 0 1 187.07 38.05
  C 190.82 53.62 195.01 69.58 197.19 85.39
  Q 199.75 104.02 201.45 122.76
  Q 201.70 125.58 201.42 135.45
  Q 201.41 135.95 200.97 136.18
  Q 195.73 138.94 190.50 141.61
  C 187.36 143.21 185.01 142.89 183.05 140.05
  Q 182.74 139.61 182.21 139.59
  L 145.91 138.84
  Q 145.43 138.83 145.02 139.11
  C 142.16 141.10 140.26 143.94 136.42 142.09
  Q 113.94 131.21 94.85 119.77
  C 94.47 119.54 93.98 119.46 93.54 119.33
  Q 93.10 119.20 93.12 118.74
  L 95.47 55.18
  Q 95.49 54.60 94.95 54.83
  L 83.75 59.62
  A 0.81 0.81 0.0 0 0 83.26 60.33
  Q 82.19 85.95 80.87 111.54
  Q 80.34 121.62 80.77 131.51
  Q 81.64 151.88 82.52 172.25
  Q 82.54 172.77 83.02 172.97
  L 94.17 177.67
  Q 94.69 177.89 94.63 178.45
  L 94.48 179.74
  Q 94.39 180.52 93.67 180.21
  Q 81.23 174.81 68.78 169.51
  C 67.49 168.96 66.89 168.26 67.32 166.84
  A 0.49 0.48 20.4 0 1 67.98 166.54
  L 76.21 170.07
  Q 76.77 170.31 76.74 169.69
  Q 75.44 146.20 74.04 122.75
  Q 73.86 119.75 74.03 116.75
  Q 75.56 90.09 76.69 63.41
  Q 76.72 62.63 76.01 62.95
  Z
  M 119.28 40.60
  A 0.65 0.65 0.0 0 0 118.58 41.35
  L 121.84 61.47
  A 0.65 0.65 0.0 0 0 122.43 62.01
  L 189.22 67.13
  A 0.65 0.65 0.0 0 0 189.90 66.35
  L 186.04 47.88
  A 0.65 0.65 0.0 0 0 185.47 47.36
  L 119.28 40.60
  Z
  M 110.46 43.75
  L 99.01 47.95
  A 1.14 1.13 -9.0 0 0 98.25 48.99
  L 96.37 103.52
  A 0.63 0.60 14.8 0 0 96.71 104.08
  L 116.69 113.87
  A 0.90 0.90 0.0 0 0 117.99 113.04
  Q 117.65 97.60 116.43 81.93
  C 115.51 70.09 113.11 56.87 111.53 44.41
  Q 111.41 43.41 110.46 43.75
  Z
  M 95.4705 51.7887
  A 0.82 0.82 0.0 0 0 94.3893 51.3694
  L 66.2085 63.7986
  A 0.82 0.82 0.0 0 0 65.7892 64.8798
  L 65.8295 64.9713
  A 0.82 0.82 0.0 0 0 66.9107 65.3906
  L 95.0915 52.9614
  A 0.82 0.82 0.0 0 0 95.5108 51.8802
  L 95.4705 51.7887
  Z
  M 192.53 90.41
  Q 193.05 91.09 192.33 92.06
  Q 183.00 104.64 173.95 117.45
  Q 173.60 117.95 174.21 117.99
  C 177.58 118.24 180.26 118.49 183.65 117.46
  Q 189.68 115.63 195.58 113.98
  A 1.28 1.28 0.0 0 0 196.51 112.62
  Q 195.25 100.51 194.01 88.32
  C 193.36 81.94 191.74 75.62 190.50 69.25
  Q 190.41 68.82 189.98 68.78
  L 122.95 63.63
  Q 122.33 63.58 122.37 64.20
  L 125.90 109.73
  A 2.44 2.44 0.0 0 0 127.66 111.89
  Q 133.42 113.52 139.22 115.46
  Q 142.84 116.67 146.40 116.86
  Q 156.30 117.40 166.34 117.60
  A 1.05 1.04 19.1 0 0 167.19 117.19
  L 188.63 88.90
  A 1.21 1.20 10.4 0 1 189.29 88.45
  Q 190.98 88.00 190.23 89.02
  Q 179.72 103.19 169.55 117.34
  A 0.38 0.38 0.0 0 0 170.09 117.86
  Q 171.50 116.80 172.59 115.36
  Q 181.73 103.23 191.32 90.41
  A 0.76 0.76 0.0 0 1 192.53 90.41
  Z
  M 64.12 67.03
  A 0.70 0.70 0.0 0 0 63.01 66.43
  L 51.24 74.94
  A 0.70 0.70 0.0 0 0 50.95 75.49
  L 50.00 109.49
  A 0.70 0.70 0.0 0 0 50.81 110.20
  L 61.30 108.55
  A 0.70 0.70 0.0 0 0 61.89 107.89
  L 64.12 67.03
  Z
  M 49.34 76.94
  A 0.34 0.34 0.0 0 0 48.81 76.65
  L 39.39 83.24
  A 0.34 0.34 0.0 0 0 39.24 83.50
  L 37.70 111.90
  A 0.34 0.34 0.0 0 0 38.10 112.25
  L 48.09 110.64
  A 0.34 0.34 0.0 0 0 48.38 110.32
  L 49.34 76.94
  Z
  M 180.42 122.86
  L 180.72 134.26
  Q 180.73 134.76 180.24 134.76
  L 158.74 134.75
  Q 158.24 134.75 158.23 134.24
  L 157.98 122.24
  Q 157.97 121.70 158.51 121.71
  L 163.48 121.81
  A 0.77 0.77 0.0 0 0 163.58 120.27
  Q 160.14 119.86 156.85 120.46
  Q 156.35 120.55 156.36 121.06
  L 156.75 135.00
  A 1.28 1.28 0.0 0 0 158.03 136.24
  L 181.03 136.25
  A 1.26 1.26 0.0 0 0 182.29 134.96
  L 181.93 121.50
  A 0.71 0.71 0.0 0 0 181.24 120.81
  Q 176.72 120.73 172.23 120.66
  Q 171.11 120.64 170.60 121.58
  Q 170.32 122.11 170.92 122.12
  L 179.86 122.31
  Q 180.41 122.32 180.42 122.86
  Z
  M 137.85 126.43
  C 136.34 123.75 134.50 119.65 131.38 120.89
  C 127.09 122.59 128.21 126.76 128.24 130.44
  C 128.29 136.37 133.19 139.61 138.80 139.68
  A 1.56 1.55 27.4 0 0 139.69 139.40
  C 144.98 135.60 139.99 130.21 137.85 126.43
  Z
  M 191.31 123.00
  C 188.97 126.40 182.00 137.52 188.44 140.13
  Q 188.90 140.32 189.37 140.18
  C 192.31 139.31 195.98 137.84 196.93 134.56
  Q 198.79 128.13 194.77 122.91
  A 2.14 2.14 0.0 0 0 191.31 123.00
  Z"
/>
<path fill="#1e90ff" d="
  M 119.28 40.60
  L 185.47 47.36
  A 0.65 0.65 0.0 0 1 186.04 47.88
  L 189.90 66.35
  A 0.65 0.65 0.0 0 1 189.22 67.13
  L 122.43 62.01
  A 0.65 0.65 0.0 0 1 121.84 61.47
  L 118.58 41.35
  A 0.65 0.65 0.0 0 1 119.28 40.60
  Z
  M 129.08 49.91
  A 1.21 1.21 0.0 0 1 129.45 47.53
  L 131.25 47.67
  A 0.66 0.66 0.0 0 0 131.97 47.05
  L 132.03 46.10
  A 0.67 0.67 0.0 0 0 131.34 45.39
  L 126.68 45.52
  A 0.69 0.69 0.0 0 0 126.01 46.17
  L 125.76 51.07
  A 0.87 0.86 -86.6 0 0 126.56 51.98
  L 129.86 52.23
  A 0.64 0.63 2.9 0 1 130.45 52.87
  L 130.41 55.99
  A 0.66 0.66 0.0 0 1 129.76 56.64
  L 126.42 56.68
  A 0.85 0.85 0.0 0 0 126.09 58.31
  C 132.12 60.89 134.18 55.38 131.95 50.95
  Q 131.73 50.52 131.26 50.41
  L 129.08 49.91
  Z
  M 146.72 52.97
  L 146.96 50.33
  Q 147.00 49.89 146.60 49.70
  L 146.22 49.51
  A 0.33 0.32 -76.7 0 0 145.76 49.80
  L 145.61 57.50
  Q 145.60 58.17 145.01 57.83
  Q 144.33 57.44 143.47 57.58
  A 0.33 0.33 0.0 0 0 143.50 58.23
  L 146.21 58.40
  Q 146.62 58.43 146.67 58.02
  L 147.03 55.34
  A 0.51 0.51 0.0 0 1 148.03 55.31
  L 148.68 58.61
  A 0.69 0.69 0.0 0 0 149.49 59.16
  L 149.96 59.07
  A 0.27 0.27 0.0 0 0 150.16 58.68
  Q 148.10 54.47 149.87 50.35
  A 0.46 0.46 0.0 0 0 149.05 49.95
  L 147.35 53.15
  A 0.34 0.33 -28.6 0 1 146.72 52.97
  Z
  M 153.19 54.14
  L 152.60 53.94
  Q 152.18 53.80 152.17 53.36
  L 152.06 50.31
  A 0.53 0.52 -45.4 0 0 151.01 50.32
  L 150.82 59.00
  A 0.59 0.55 -80.5 0 0 151.92 59.00
  L 151.98 56.11
  A 0.64 0.64 0.0 0 1 152.65 55.49
  L 153.36 55.53
  Q 154.17 55.58 154.10 56.38
  L 153.88 59.10
  Q 153.86 59.40 154.12 59.54
  L 154.41 59.68
  A 0.42 0.41 14.2 0 0 155.02 59.32
  L 155.20 50.76
  A 0.44 0.44 0.0 0 0 154.33 50.69
  L 153.89 53.71
  A 0.53 0.53 0.0 0 1 153.19 54.14
  Z
  M 135.84 52.48
  Q 136.15 51.73 135.83 50.99
  A 0.52 0.51 34.0 0 0 134.84 51.18
  L 134.76 57.16
  Q 134.75 57.57 135.16 57.59
  L 135.48 57.60
  Q 135.87 57.62 135.89 57.22
  L 135.97 55.50
  A 0.41 0.41 0.0 0 1 136.49 55.12
  Q 136.82 55.22 136.98 55.55
  Q 137.09 55.76 137.07 56.42
  Q 137.03 57.53 138.20 57.84
  A 0.40 0.39 -8.3 0 0 138.64 57.25
  Q 136.78 54.34 138.48 51.53
  Q 138.70 51.16 138.27 51.15
  L 137.98 51.14
  A 0.60 0.59 -78.9 0 0 137.41 51.53
  Q 137.08 52.40 136.34 52.89
  A 0.34 0.34 0.0 0 1 135.84 52.48
  Z
  M 158.00 56.70
  A 0.71 0.70 -34.6 0 1 159.38 56.95
  L 159.15 59.73
  A 0.50 0.49 4.0 0 0 159.62 60.26
  Q 159.92 60.27 160.14 60.11
  Q 160.41 59.91 160.47 59.30
  Q 160.81 55.53 160.60 51.75
  A 0.58 0.57 -88.9 0 0 160.09 51.21
  L 157.67 50.96
  A 0.70 0.69 -68.8 0 0 157.02 51.25
  Q 155.42 53.53 156.90 55.60
  A 0.84 0.82 -55.2 0 1 157.02 56.33
  L 156.02 59.62
  Q 155.95 59.85 156.19 59.90
  Q 156.36 59.93 156.54 59.96
  A 0.53 0.52 -75.7 0 0 157.15 59.59
  L 158.00 56.70
  Z
  M 142.56 54.27
  Q 143.41 52.96 142.04 51.45
  A 1.70 1.70 0.0 0 0 139.08 52.60
  L 139.08 56.95
  Q 139.09 57.56 139.62 57.86
  Q 141.84 59.09 142.87 57.03
  Q 143.14 56.50 142.90 55.95
  L 142.50 55.03
  Q 142.33 54.63 142.56 54.27
  Z
  M 165.04 57.10
  L 165.31 57.20
  Q 165.69 57.34 165.77 57.74
  Q 166.68 62.69 172.04 61.27
  Q 172.50 61.15 172.31 60.71
  Q 171.81 59.60 170.45 59.99
  A 0.58 0.57 -8.5 0 1 169.71 59.45
  L 169.67 57.93
  Q 169.66 57.43 170.16 57.46
  L 171.70 57.53
  A 0.52 0.52 0.0 0 0 171.93 56.54
  L 170.13 55.77
  Q 169.67 55.56 169.69 55.06
  L 169.73 54.12
  Q 169.77 53.38 170.48 53.60
  L 171.53 53.92
  A 0.73 0.73 0.0 0 0 172.07 52.57
  Q 170.95 52.03 169.31 52.23
  Q 168.68 52.31 168.67 52.94
  L 168.51 60.28
  A 0.19 0.18 -62.9 0 1 168.18 60.39
  Q 165.16 56.46 167.94 52.56
  Q 168.21 52.18 167.66 51.93
  A 0.52 0.50 27.4 0 0 167.00 52.13
  L 165.37 54.89
  A 0.29 0.29 0.0 0 1 164.83 54.73
  Q 164.88 53.58 165.24 52.48
  Q 165.34 52.19 165.29 52.03
  Q 165.23 51.79 165.03 51.68
  Q 164.53 51.40 164.33 51.93
  Q 163.93 53.04 164.14 54.30
  A 0.32 0.31 -58.7 0 1 163.53 54.45
  L 162.74 52.01
  Q 162.59 51.53 162.09 51.48
  Q 161.95 51.47 161.81 51.48
  Q 161.05 51.53 161.46 52.17
  Q 163.95 56.13 160.99 59.67
  Q 160.56 60.18 161.18 60.41
  Q 161.55 60.54 161.87 60.36
  Q 162.17 60.19 162.38 59.55
  Q 162.82 58.18 163.69 57.06
  Q 164.15 56.48 164.11 57.21
  L 163.95 60.28
  Q 163.92 60.84 164.47 60.77
  Q 164.76 60.73 164.82 60.41
  Q 165.13 58.80 164.93 57.20
  A 0.09 0.09 0.0 0 1 165.04 57.10
  Z
  M 176.82 57.13
  L 177.50 55.36
  A 0.28 0.26 -43.2 0 0 177.51 55.20
  Q 176.77 52.21 173.76 52.77
  Q 173.33 52.86 173.32 53.30
  L 173.20 60.95
  Q 173.20 61.45 173.63 61.70
  C 176.60 63.44 178.48 60.31 176.92 57.98
  Q 176.65 57.58 176.82 57.13
  Z
  M 180.5116 62.8100
  A 4.80 2.44 90.1 0 0 182.9600 58.0143
  A 4.80 2.44 90.1 0 0 180.5284 53.2100
  A 4.80 2.44 90.1 0 0 178.0800 58.0057
  A 4.80 2.44 90.1 0 0 180.5116 62.8100
  Z"
/>
<path fill="#1e90ff" d="
  M 110.46 43.75
  Q 111.41 43.41 111.53 44.41
  C 113.11 56.87 115.51 70.09 116.43 81.93
  Q 117.65 97.60 117.99 113.04
  A 0.90 0.90 0.0 0 1 116.69 113.87
  L 96.71 104.08
  A 0.63 0.60 14.8 0 1 96.37 103.52
  L 98.25 48.99
  A 1.14 1.13 -9.0 0 1 99.01 47.95
  L 110.46 43.75
  Z"
/>
<path fill="#fefeff" d="
  M 129.08 49.91
  L 131.26 50.41
  Q 131.73 50.52 131.95 50.95
  C 134.18 55.38 132.12 60.89 126.09 58.31
  A 0.85 0.85 0.0 0 1 126.42 56.68
  L 129.76 56.64
  A 0.66 0.66 0.0 0 0 130.41 55.99
  L 130.45 52.87
  A 0.64 0.63 2.9 0 0 129.86 52.23
  L 126.56 51.98
  A 0.87 0.86 -86.6 0 1 125.76 51.07
  L 126.01 46.17
  A 0.69 0.69 0.0 0 1 126.68 45.52
  L 131.34 45.39
  A 0.67 0.67 0.0 0 1 132.03 46.10
  L 131.97 47.05
  A 0.66 0.66 0.0 0 1 131.25 47.67
  L 129.45 47.53
  A 1.21 1.21 0.0 0 0 129.08 49.91
  Z"
/>
<path fill="#fefeff" d="
  M 146.72 52.97
  A 0.34 0.33 -28.6 0 0 147.35 53.15
  L 149.05 49.95
  A 0.46 0.46 0.0 0 1 149.87 50.35
  Q 148.10 54.47 150.16 58.68
  A 0.27 0.27 0.0 0 1 149.96 59.07
  L 149.49 59.16
  A 0.69 0.69 0.0 0 1 148.68 58.61
  L 148.03 55.31
  A 0.51 0.51 0.0 0 0 147.03 55.34
  L 146.67 58.02
  Q 146.62 58.43 146.21 58.40
  L 143.50 58.23
  A 0.33 0.33 0.0 0 1 143.47 57.58
  Q 144.33 57.44 145.01 57.83
  Q 145.60 58.17 145.61 57.50
  L 145.76 49.80
  A 0.33 0.32 -76.7 0 1 146.22 49.51
  L 146.60 49.70
  Q 147.00 49.89 146.96 50.33
  L 146.72 52.97
  Z"
/>
<path fill="#fefeff" d="
  M 153.89 53.71
  L 154.33 50.69
  A 0.44 0.44 0.0 0 1 155.20 50.76
  L 155.02 59.32
  A 0.42 0.41 14.2 0 1 154.41 59.68
  L 154.12 59.54
  Q 153.86 59.40 153.88 59.10
  L 154.10 56.38
  Q 154.17 55.58 153.36 55.53
  L 152.65 55.49
  A 0.64 0.64 0.0 0 0 151.98 56.11
  L 151.92 59.00
  A 0.59 0.55 -80.5 0 1 150.82 59.00
  L 151.01 50.32
  A 0.53 0.52 -45.4 0 1 152.06 50.31
  L 152.17 53.36
  Q 152.18 53.80 152.60 53.94
  L 153.19 54.14
  A 0.53 0.53 0.0 0 0 153.89 53.71
  Z"
/>
<path fill="#fefeff" d="
  M 136.34 52.89
  Q 137.08 52.40 137.41 51.53
  A 0.60 0.59 -78.9 0 1 137.98 51.14
  L 138.27 51.15
  Q 138.70 51.16 138.48 51.53
  Q 136.78 54.34 138.64 57.25
  A 0.40 0.39 -8.3 0 1 138.20 57.84
  Q 137.03 57.53 137.07 56.42
  Q 137.09 55.76 136.98 55.55
  Q 136.82 55.22 136.49 55.12
  A 0.41 0.41 0.0 0 0 135.97 55.50
  L 135.89 57.22
  Q 135.87 57.62 135.48 57.60
  L 135.16 57.59
  Q 134.75 57.57 134.76 57.16
  L 134.84 51.18
  A 0.52 0.51 34.0 0 1 135.83 50.99
  Q 136.15 51.73 135.84 52.48
  A 0.34 0.34 0.0 0 0 136.34 52.89
  Z"
/>
<path fill="#fefeff" d="
  M 158.00 56.70
  L 157.15 59.59
  A 0.53 0.52 -75.7 0 1 156.54 59.96
  Q 156.36 59.93 156.19 59.90
  Q 155.95 59.85 156.02 59.62
  L 157.02 56.33
  A 0.84 0.82 -55.2 0 0 156.90 55.60
  Q 155.42 53.53 157.02 51.25
  A 0.70 0.69 -68.8 0 1 157.67 50.96
  L 160.09 51.21
  A 0.58 0.57 -88.9 0 1 160.60 51.75
  Q 160.81 55.53 160.47 59.30
  Q 160.41 59.91 160.14 60.11
  Q 159.92 60.27 159.62 60.26
  A 0.50 0.49 4.0 0 1 159.15 59.73
  L 159.38 56.95
  A 0.71 0.70 -34.6 0 0 158.00 56.70
  Z
  M 158.65 52.29
  Q 156.52 52.77 157.94 54.81
  A 0.87 0.87 0.0 0 0 159.52 54.25
  L 159.42 52.87
  Q 159.37 52.13 158.65 52.29
  Z"
/>
<rect fill="#1e90ff" x="-16.22" y="-0.87" transform="translate(80.65,58.38) rotate(-23.8)" width="32.44" height="1.74" rx="0.82"/>
<path fill="#fefeff" d="
  M 142.50 55.03
  L 142.90 55.95
  Q 143.14 56.50 142.87 57.03
  Q 141.84 59.09 139.62 57.86
  Q 139.09 57.56 139.08 56.95
  L 139.08 52.60
  A 1.70 1.70 0.0 0 1 142.04 51.45
  Q 143.41 52.96 142.56 54.27
  Q 142.33 54.63 142.50 55.03
  Z
  M 140.71 52.59
  Q 140.15 52.46 140.05 53.02
  Q 139.84 54.21 141.38 53.86
  A 0.56 0.56 0.0 0 0 141.39 52.76
  L 140.71 52.59
  Z
  M 141.94 56.47
  Q 141.93 55.04 140.54 55.06
  A 0.67 0.66 -82.6 0 0 139.90 55.56
  Q 139.80 55.93 139.99 56.32
  Q 140.12 56.61 140.46 56.74
  Q 141.09 56.98 141.67 56.82
  A 0.36 0.36 0.0 0 0 141.94 56.47
  Z"
/>
<path fill="#fefeff" d="
  M 164.93 57.20
  Q 165.13 58.80 164.82 60.41
  Q 164.76 60.73 164.47 60.77
  Q 163.92 60.84 163.95 60.28
  L 164.11 57.21
  Q 164.15 56.48 163.69 57.06
  Q 162.82 58.18 162.38 59.55
  Q 162.17 60.19 161.87 60.36
  Q 161.55 60.54 161.18 60.41
  Q 160.56 60.18 160.99 59.67
  Q 163.95 56.13 161.46 52.17
  Q 161.05 51.53 161.81 51.48
  Q 161.95 51.47 162.09 51.48
  Q 162.59 51.53 162.74 52.01
  L 163.53 54.45
  A 0.32 0.31 -58.7 0 0 164.14 54.30
  Q 163.93 53.04 164.33 51.93
  Q 164.53 51.40 165.03 51.68
  Q 165.23 51.79 165.29 52.03
  Q 165.34 52.19 165.24 52.48
  Q 164.88 53.58 164.83 54.73
  A 0.29 0.29 0.0 0 0 165.37 54.89
  L 167.00 52.13
  A 0.52 0.50 27.4 0 1 167.66 51.93
  Q 168.21 52.18 167.94 52.56
  Q 165.16 56.46 168.18 60.39
  A 0.19 0.18 -62.9 0 0 168.51 60.28
  L 168.67 52.94
  Q 168.68 52.31 169.31 52.23
  Q 170.95 52.03 172.07 52.57
  A 0.73 0.73 0.0 0 1 171.53 53.92
  L 170.48 53.60
  Q 169.77 53.38 169.73 54.12
  L 169.69 55.06
  Q 169.67 55.56 170.13 55.77
  L 171.93 56.54
  A 0.52 0.52 0.0 0 1 171.70 57.53
  L 170.16 57.46
  Q 169.66 57.43 169.67 57.93
  L 169.71 59.45
  A 0.58 0.57 -8.5 0 0 170.45 59.99
  Q 171.81 59.60 172.31 60.71
  Q 172.50 61.15 172.04 61.27
  Q 166.68 62.69 165.77 57.74
  Q 165.69 57.34 165.31 57.20
  L 165.04 57.10
  A 0.09 0.09 0.0 0 0 164.93 57.20
  Z"
/>
<path fill="#1e90ff" d="
  M 158.65 52.29
  Q 159.37 52.13 159.42 52.87
  L 159.52 54.25
  A 0.87 0.87 0.0 0 1 157.94 54.81
  Q 156.52 52.77 158.65 52.29
  Z"
/>
<path fill="#1e90ff" d="
  M 140.71 52.59
  L 141.39 52.76
  A 0.56 0.56 0.0 0 1 141.38 53.86
  Q 139.84 54.21 140.05 53.02
  Q 140.15 52.46 140.71 52.59
  Z"
/>
<path fill="#fefeff" d="
  M 176.92 57.98
  C 178.48 60.31 176.60 63.44 173.63 61.70
  Q 173.20 61.45 173.20 60.95
  L 173.32 53.30
  Q 173.33 52.86 173.76 52.77
  Q 176.77 52.21 177.51 55.20
  A 0.28 0.26 -43.2 0 1 177.50 55.36
  L 176.82 57.13
  Q 176.65 57.58 176.92 57.98
  Z
  M 175.2677 56.7895
  A 1.35 1.01 88.4 0 0 176.2396 55.4118
  A 1.35 1.01 88.4 0 0 175.1923 54.0905
  A 1.35 1.01 88.4 0 0 174.2204 55.4682
  A 1.35 1.01 88.4 0 0 175.2677 56.7895
  Z
  M 175.21 57.99
  Q 174.30 57.66 174.28 58.62
  L 174.26 59.86
  A 0.92 0.92 0.0 0 0 175.99 60.32
  Q 176.91 58.63 175.21 57.99
  Z"
/>
<path fill="#fefeff" d="
  M 180.5116 62.8100
  A 4.80 2.44 90.1 0 1 178.0800 58.0057
  A 4.80 2.44 90.1 0 1 180.5284 53.2100
  A 4.80 2.44 90.1 0 1 182.9600 58.0143
  A 4.80 2.44 90.1 0 1 180.5116 62.8100
  Z
  M 180.3998 61.3593
  A 3.35 1.22 91.2 0 0 181.6897 58.0355
  A 3.35 1.22 91.2 0 0 180.5402 54.6607
  A 3.35 1.22 91.2 0 0 179.2503 57.9845
  A 3.35 1.22 91.2 0 0 180.3998 61.3593
  Z"
/>
<ellipse fill="#1e90ff" cx="0.00" cy="0.00" transform="translate(175.23,55.44) rotate(88.4)" rx="1.35" ry="1.01"/>
<ellipse fill="#1e90ff" cx="0.00" cy="0.00" transform="translate(180.47,58.01) rotate(91.2)" rx="3.35" ry="1.22"/>
<path fill="#1e90ff" d="
  M 141.94 56.47
  A 0.36 0.36 0.0 0 1 141.67 56.82
  Q 141.09 56.98 140.46 56.74
  Q 140.12 56.61 139.99 56.32
  Q 139.80 55.93 139.90 55.56
  A 0.67 0.66 -82.6 0 1 140.54 55.06
  Q 141.93 55.04 141.94 56.47
  Z"
/>
<path fill="#1e90ff" d="
  M 175.21 57.99
  Q 176.91 58.63 175.99 60.32
  A 0.92 0.92 0.0 0 1 174.26 59.86
  L 174.28 58.62
  Q 174.30 57.66 175.21 57.99
  Z"
/>
<path fill="#1e90ff" d="
  M 192.53 90.41
  A 0.76 0.76 0.0 0 0 191.32 90.41
  Q 181.73 103.23 172.59 115.36
  Q 171.50 116.80 170.09 117.86
  A 0.38 0.38 0.0 0 1 169.55 117.34
  Q 179.72 103.19 190.23 89.02
  Q 190.98 88.00 189.29 88.45
  A 1.21 1.20 10.4 0 0 188.63 88.90
  L 167.19 117.19
  A 1.05 1.04 19.1 0 1 166.34 117.60
  Q 156.30 117.40 146.40 116.86
  Q 142.84 116.67 139.22 115.46
  Q 133.42 113.52 127.66 111.89
  A 2.44 2.44 0.0 0 1 125.90 109.73
  L 122.37 64.20
  Q 122.33 63.58 122.95 63.63
  L 189.98 68.78
  Q 190.41 68.82 190.50 69.25
  C 191.74 75.62 193.36 81.94 194.01 88.32
  Q 195.25 100.51 196.51 112.62
  A 1.28 1.28 0.0 0 1 195.58 113.98
  Q 189.68 115.63 183.65 117.46
  C 180.26 118.49 177.58 118.24 174.21 117.99
  Q 173.60 117.95 173.95 117.45
  Q 183.00 104.64 192.33 92.06
  Q 193.05 91.09 192.53 90.41
  Z"
/>
<path fill="#1e90ff" d="
  M 64.12 67.03
  L 61.89 107.89
  A 0.70 0.70 0.0 0 1 61.30 108.55
  L 50.81 110.20
  A 0.70 0.70 0.0 0 1 50.00 109.49
  L 50.95 75.49
  A 0.70 0.70 0.0 0 1 51.24 74.94
  L 63.01 66.43
  A 0.70 0.70 0.0 0 1 64.12 67.03
  Z"
/>
<path fill="#1e90ff" d="
  M 49.34 76.94
  L 48.38 110.32
  A 0.34 0.34 0.0 0 1 48.09 110.64
  L 38.10 112.25
  A 0.34 0.34 0.0 0 1 37.70 111.90
  L 39.24 83.50
  A 0.34 0.34 0.0 0 1 39.39 83.24
  L 48.81 76.65
  A 0.34 0.34 0.0 0 1 49.34 76.94
  Z"
/>
<path fill="#1e90ff" d="
  M 179.86 122.31
  L 170.92 122.12
  Q 170.32 122.11 170.60 121.58
  Q 171.11 120.64 172.23 120.66
  Q 176.72 120.73 181.24 120.81
  A 0.71 0.71 0.0 0 1 181.93 121.50
  L 182.29 134.96
  A 1.26 1.26 0.0 0 1 181.03 136.25
  L 158.03 136.24
  A 1.28 1.28 0.0 0 1 156.75 135.00
  L 156.36 121.06
  Q 156.35 120.55 156.85 120.46
  Q 160.14 119.86 163.58 120.27
  A 0.77 0.77 0.0 0 1 163.48 121.81
  L 158.51 121.71
  Q 157.97 121.70 157.98 122.24
  L 158.23 134.24
  Q 158.24 134.75 158.74 134.75
  L 180.24 134.76
  Q 180.73 134.76 180.72 134.26
  L 180.42 122.86
  Q 180.41 122.32 179.86 122.31
  Z"
/>
<path fill="#1e90ff" d="
  M 137.85 126.43
  C 139.99 130.21 144.98 135.60 139.69 139.40
  A 1.56 1.55 27.4 0 1 138.80 139.68
  C 133.19 139.61 128.29 136.37 128.24 130.44
  C 128.21 126.76 127.09 122.59 131.38 120.89
  C 134.50 119.65 136.34 123.75 137.85 126.43
  Z
  M 134.62 122.94
  C 132.98 120.35 129.33 121.95 129.27 124.68
  C 129.21 127.82 128.75 133.40 131.22 135.73
  Q 134.13 138.49 138.40 138.75
  Q 138.89 138.78 139.29 138.50
  C 141.39 137.00 141.67 135.19 140.41 132.85
  Q 137.68 127.77 134.62 122.94
  Z"
/>
<path fill="#fefeff" d="
  M 41.84 144.95
  L 40.42 153.97
  Q 40.31 154.65 39.71 154.32
  L 32.23 150.20
  A 0.85 0.82 14.7 0 1 31.79 149.47
  L 31.83 122.29
  Q 31.83 121.66 32.46 121.66
  L 63.84 121.62
  Q 64.30 121.62 64.32 122.09
  L 65.92 167.70
  A 0.57 0.56 -82.0 0 1 65.19 168.26
  Q 63.81 167.81 63.46 166.27
  Q 61.74 158.65 60.74 150.90
  Q 60.68 150.42 60.23 150.23
  L 44.07 143.69
  A 1.63 1.63 0.0 0 0 41.84 144.95
  Z
  M 34.4845 143.5214
  A 0.77 0.77 0.0 0 0 33.6651 142.8041
  L 33.5853 142.8094
  A 0.77 0.77 0.0 0 0 32.8680 143.6288
  L 33.1755 148.2586
  A 0.77 0.77 0.0 0 0 33.9949 148.9759
  L 34.0747 148.9706
  A 0.77 0.77 0.0 0 0 34.7920 148.1512
  L 34.4845 143.5214
  Z"
/>
<path fill="#fefeff" d="
  M 191.51 142.91
  Q 196.03 140.10 201.03 137.99
  Q 201.40 137.83 201.41 138.24
  L 201.76 174.92
  A 2.50 2.50 0.0 0 1 199.33 177.45
  L 182.95 177.90
  Q 182.50 177.91 182.53 177.46
  L 183.56 164.52
  Q 183.60 163.99 184.14 163.98
  Q 190.64 163.94 194.23 163.52
  C 198.46 163.03 198.20 157.05 195.89 154.75
  Q 194.66 153.52 192.21 153.49
  Q 169.19 153.27 146.19 153.21
  C 138.47 153.20 136.93 162.54 143.87 164.90
  Q 144.34 165.06 144.33 165.56
  L 144.03 178.96
  Q 144.02 179.52 143.46 179.55
  Q 137.15 179.94 130.83 180.15
  C 121.45 180.46 112.40 182.10 103.11 183.05
  C 100.28 183.33 98.75 182.56 96.53 181.07
  Q 96.14 180.81 96.11 180.33
  Q 94.80 152.29 93.43 124.25
  Q 93.36 122.86 93.60 122.38
  Q 94.24 121.11 95.17 121.67
  Q 115.38 133.72 136.50 143.77
  C 140.17 145.52 142.60 142.78 145.24 140.73
  A 1.47 1.47 0.0 0 1 146.17 140.42
  L 181.52 141.13
  Q 182.04 141.14 182.39 141.53
  Q 184.48 143.88 187.37 144.18
  Q 189.16 144.37 191.51 142.91
  Z
  M 99.5944 128.4190
  A 2.55 1.88 3.8 0 0 97.1746 126.3741
  A 2.55 1.88 3.8 0 0 94.5056 128.0810
  A 2.55 1.88 3.8 0 0 96.9254 130.1259
  A 2.55 1.88 3.8 0 0 99.5944 128.4190
  Z"
/>
<path fill="#fefeff" d="
  M 129.27 124.68
  C 129.33 121.95 132.98 120.35 134.62 122.94
  Q 137.68 127.77 140.41 132.85
  C 141.67 135.19 141.39 137.00 139.29 138.50
  Q 138.89 138.78 138.40 138.75
  Q 134.13 138.49 131.22 135.73
  C 128.75 133.40 129.21 127.82 129.27 124.68
  Z
  M 132.0955 128.0493
  A 2.23 1.33 91.4 0 0 133.4796 125.8525
  A 2.23 1.33 91.4 0 0 132.2045 123.5907
  A 2.23 1.33 91.4 0 0 130.8204 125.7875
  A 2.23 1.33 91.4 0 0 132.0955 128.0493
  Z
  M 133.5245 134.8284
  A 2.85 2.26 88.1 0 0 135.6888 131.9051
  A 2.85 2.26 88.1 0 0 133.3355 129.1316
  A 2.85 2.26 88.1 0 0 131.1712 132.0549
  A 2.85 2.26 88.1 0 0 133.5245 134.8284
  Z
  M 137.7935 136.8543
  A 1.94 1.38 97.3 0 0 139.4088 135.1053
  A 1.94 1.38 97.3 0 0 138.2865 133.0057
  A 1.94 1.38 97.3 0 0 136.6712 134.7547
  A 1.94 1.38 97.3 0 0 137.7935 136.8543
  Z"
/>
<path fill="#1e90ff" d="
  M 188.44 140.13
  C 182.00 137.52 188.97 126.40 191.31 123.00
  A 2.14 2.14 0.0 0 1 194.77 122.91
  Q 198.79 128.13 196.93 134.56
  C 195.98 137.84 192.31 139.31 189.37 140.18
  Q 188.90 140.32 188.44 140.13
  Z
  M 196.37 131.25
  C 196.21 127.48 195.96 125.92 194.03 123.20
  A 0.70 0.70 0.0 0 0 193.05 123.04
  C 190.06 125.18 188.13 130.43 186.94 133.79
  C 186.16 136.00 186.37 138.01 188.53 139.09
  Q 188.96 139.31 189.42 139.17
  C 193.87 137.83 196.57 136.09 196.37 131.25
  Z"
/>
<path fill="#fefeff" d="
  M 194.03 123.20
  C 195.96 125.92 196.21 127.48 196.37 131.25
  C 196.57 136.09 193.87 137.83 189.42 139.17
  Q 188.96 139.31 188.53 139.09
  C 186.37 138.01 186.16 136.00 186.94 133.79
  C 188.13 130.43 190.06 125.18 193.05 123.04
  A 0.70 0.70 0.0 0 1 194.03 123.20
  Z
  M 193.3612 128.5398
  A 2.06 1.29 90.8 0 0 194.6799 126.4980
  A 2.06 1.29 90.8 0 0 193.4188 124.4202
  A 2.06 1.29 90.8 0 0 192.1001 126.4620
  A 2.06 1.29 90.8 0 0 193.3612 128.5398
  Z
  M 192.8608 134.9687
  A 2.39 1.93 91.9 0 0 194.8689 132.6440
  A 2.39 1.93 91.9 0 0 193.0192 130.1913
  A 2.39 1.93 91.9 0 0 191.0111 132.5160
  A 2.39 1.93 91.9 0 0 192.8608 134.9687
  Z
  M 188.8389 137.1793
  A 1.80 1.33 100.6 0 0 190.4773 135.6547
  A 1.80 1.33 100.6 0 0 189.5011 133.6407
  A 1.80 1.33 100.6 0 0 187.8627 135.1653
  A 1.80 1.33 100.6 0 0 188.8389 137.1793
  Z"
/>
<ellipse fill="#1e90ff" cx="0.00" cy="0.00" transform="translate(132.15,125.82) rotate(91.4)" rx="2.23" ry="1.33"/>
<ellipse fill="#1e90ff" cx="0.00" cy="0.00" transform="translate(193.39,126.48) rotate(90.8)" rx="2.06" ry="1.29"/>
<ellipse fill="#1e90ff" cx="0.00" cy="0.00" transform="translate(97.05,128.25) rotate(3.8)" rx="2.55" ry="1.88"/>
<ellipse fill="#1e90ff" cx="0.00" cy="0.00" transform="translate(133.43,131.98) rotate(88.1)" rx="2.85" ry="2.26"/>
<ellipse fill="#1e90ff" cx="0.00" cy="0.00" transform="translate(192.94,132.58) rotate(91.9)" rx="2.39" ry="1.93"/>
<ellipse fill="#1e90ff" cx="0.00" cy="0.00" transform="translate(138.04,134.93) rotate(97.3)" rx="1.94" ry="1.38"/>
<ellipse fill="#1e90ff" cx="0.00" cy="0.00" transform="translate(189.17,135.41) rotate(100.6)" rx="1.80" ry="1.33"/>
<rect fill="#1e90ff" x="-0.81" y="-3.09" transform="translate(33.83,145.89) rotate(-3.8)" width="1.62" height="6.18" rx="0.77"/>
<path fill="#fefeff" d="
  M 61.06 165.76
  L 42.41 155.45
  Q 41.93 155.18 42.03 154.64
  L 42.07 154.39
  A 0.50 0.49 18.0 0 1 42.78 154.03
  Q 51.67 158.46 60.24 163.46
  Q 61.45 164.16 61.58 165.41
  Q 61.66 166.09 61.06 165.76
  Z"
/>
<path fill="#fefeff" d="
  M 180.70 178.05
  L 145.77 179.52
  A 0.33 0.33 0.0 0 1 145.43 179.18
  L 145.81 165.57
  A 0.33 0.33 0.0 0 1 146.13 165.25
  L 181.67 164.13
  A 0.33 0.33 0.0 0 1 182.01 164.49
  L 181.01 177.75
  A 0.33 0.33 0.0 0 1 180.70 178.05
  Z"
/>
</svg>
