<?xml version="1.0" encoding="UTF-8" standalone="no"?>
<!DOCTYPE svg PUBLIC "-//W3C//DTD SVG 1.1//EN" "http://www.w3.org/Graphics/SVG/1.1/DTD/svg11.dtd">
<svg xmlns="http://www.w3.org/2000/svg" version="1.1" viewBox="0.00 0.00 750.00 1125.00">
<g stroke-width="2.00" fill="none" stroke-linecap="butt">
<path stroke="#8ec7ff" vector-effect="non-scaling-stroke" d="
  M 334.71 520.23
  Q 333.56 547.00 332.02 573.75
  Q 331.85 576.75 332.03 579.76
  Q 333.44 603.20 334.74 626.69
  Q 334.78 627.33 334.19 627.08
  L 325.96 623.54
  Q 325.23 623.22 325.24 624.02
  L 325.26 625.08
  A 1.19 1.19 0.0 0 0 325.98 626.14
  L 351.65 637.19
  Q 352.33 637.49 352.45 636.76
  L 352.65 635.61
  Q 352.77 634.92 352.12 634.64
  L 341.02 629.97
  Q 340.53 629.77 340.51 629.24
  Q 339.63 608.86 338.77 588.48
  Q 338.35 578.60 338.87 568.52
  Q 340.19 542.95 341.26 517.34
  A 0.81 0.81 0.0 0 1 341.76 516.62
  L 352.95 511.83
  Q 353.49 511.60 353.47 512.19
  L 351.12 575.74
  Q 351.10 576.21 351.55 576.34
  C 352.02 576.47 352.48 576.53 352.90 576.78
  Q 373.82 589.36 395.50 599.58
  A 3.18 3.16 39.0 0 0 398.75 599.25
  L 402.98 596.09
  Q 403.36 595.81 403.84 595.82
  L 440.21 596.57
  Q 440.78 596.58 441.10 597.06
  C 443.09 600.05 445.55 600.13 448.71 598.51
  Q 453.83 595.88 458.95 593.20
  A 0.85 0.84 -13.1 0 0 459.40 592.49
  Q 459.79 583.38 459.30 577.76
  Q 458.13 564.46 455.59 545.16
  C 453.37 528.23 449.11 511.46 445.03 495.01
  A 3.11 3.10 0.2 0 0 442.79 492.76
  Q 435.12 490.76 427.72 489.18
  C 415.71 486.63 402.76 486.05 390.33 485.01
  C 384.43 484.52 378.77 484.73 372.95 484.96
  Q 370.84 485.05 369.00 486.13
  Q 348.85 497.96 328.50 509.47
  Q 323.70 512.18 319.51 515.68
  Q 304.88 527.92 290.24 540.16
  Q 289.83 540.50 289.83 541.03
  L 289.80 544.93
  Q 289.79 545.67 290.40 545.23
  L 295.03 541.88
  A 0.37 0.37 0.0 0 1 295.62 542.20
  L 294.09 568.98
  Q 294.06 569.54 293.51 569.64
  L 290.38 570.21
  Q 289.83 570.31 289.82 570.87
  L 289.81 576.56
  A 0.50 0.50 0.0 0 0 290.31 577.06
  L 321.52 577.06
  Q 322.11 577.06 322.13 576.47
  L 323.83 525.29
  A 1.30 1.28 -11.3 0 1 324.59 524.17
  L 334.19 519.88
  Q 334.73 519.64 334.71 520.23"
/>
<path stroke="#8ec7ff" vector-effect="non-scaling-stroke" d="
  M 299.87 601.71
  A 1.45 1.45 0.0 0 1 301.84 600.59
  L 318.22 607.23
  Q 318.63 607.39 318.70 607.83
  Q 319.81 615.81 321.69 623.64
  C 321.86 624.36 322.44 624.99 323.06 625.28
  A 0.60 0.60 0.0 0 0 323.91 624.72
  L 322.33 579.30
  Q 322.31 578.67 321.68 578.67
  L 290.34 578.66
  Q 289.84 578.66 289.84 579.16
  L 289.80 606.35
  Q 289.80 606.96 290.33 607.25
  L 297.70 611.32
  Q 298.31 611.66 298.41 610.97
  L 299.87 601.71"
/>
<path stroke="#8ec7ff" vector-effect="non-scaling-stroke" d="
  M 445.13 601.17
  Q 442.39 600.77 440.43 598.56
  Q 440.09 598.18 439.57 598.17
  L 404.18 597.42
  Q 403.72 597.42 403.35 597.69
  C 401.20 599.25 398.07 602.43 395.22 601.09
  Q 373.84 591.00 353.25 578.72
  Q 352.15 578.06 351.57 579.21
  Q 351.35 579.64 351.42 581.00
  Q 352.79 609.20 354.12 637.39
  Q 354.14 637.87 354.54 638.11
  C 356.67 639.43 358.12 640.33 360.78 640.07
  C 370.23 639.13 379.43 637.44 388.97 637.14
  Q 395.21 636.95 401.44 636.56
  Q 401.99 636.52 402.00 635.97
  L 402.32 622.61
  Q 402.33 622.19 401.93 622.04
  C 397.74 620.46 396.04 615.92 398.79 612.32
  Q 400.44 610.17 403.00 610.18
  Q 426.59 610.29 450.21 610.49
  Q 452.66 610.51 453.89 611.74
  C 456.09 613.95 456.57 620.02 452.23 620.52
  Q 448.52 620.95 442.14 620.99
  Q 441.61 620.99 441.56 621.52
  L 440.49 634.43
  Q 440.45 634.90 440.93 634.89
  L 457.32 634.47
  A 2.51 2.51 0.0 0 0 459.76 631.93
  L 459.41 595.23
  Q 459.40 594.80 459.00 594.98
  Q 453.83 597.26 449.05 600.11
  Q 446.87 601.42 445.13 601.17"
/>
<path stroke="#8ec7ff" vector-effect="non-scaling-stroke" d="
  M 300.60 612.56
  C 306.72 615.94 312.83 619.50 319.01 622.76
  Q 319.51 623.02 319.54 622.46
  Q 319.58 621.23 318.58 620.62
  Q 311.94 616.59 300.87 611.08
  A 0.58 0.57 29.7 0 0 300.12 611.28
  Q 299.93 611.56 299.98 611.87
  Q 300.05 612.26 300.60 612.56"
/>
<path stroke="#8ec7ff" vector-effect="non-scaling-stroke" d="
  M 438.75 635.05
  A 0.32 0.32 0.0 0 0 439.06 634.76
  L 440.01 621.45
  A 0.32 0.32 0.0 0 0 439.69 621.11
  L 404.17 622.26
  A 0.32 0.32 0.0 0 0 403.86 622.57
  L 403.47 636.19
  A 0.32 0.32 0.0 0 0 403.80 636.52
  L 438.75 635.05"
/>
<path stroke="#8ec7ff" vector-effect="non-scaling-stroke" d="
  M 377.24 497.59
  A 0.63 0.63 0.0 0 0 376.55 498.32
  L 379.86 518.47
  A 0.63 0.63 0.0 0 0 380.43 519.00
  L 447.23 524.15
  A 0.63 0.63 0.0 0 0 447.90 523.39
  L 444.04 504.86
  A 0.63 0.63 0.0 0 0 443.49 504.36
  L 377.24 497.59"
/>
<path stroke="#8ec7ff" vector-effect="non-scaling-stroke" d="
  M 368.45 500.75
  L 357.00 504.95
  A 1.17 1.16 81.0 0 0 356.24 506.00
  L 354.38 560.21
  A 1.09 1.08 14.2 0 0 354.98 561.21
  L 374.70 570.87
  A 0.91 0.91 0.0 0 0 376.01 570.03
  Q 375.64 555.42 374.57 540.59
  C 373.66 528.07 371.21 514.42 369.52 501.40
  Q 369.39 500.41 368.45 500.75"
/>
<path stroke="#8ec7ff" vector-effect="non-scaling-stroke" d="
  M 353.4917 508.8122
  A 0.85 0.85 0.0 0 0 352.3710 508.3775
  L 324.2268 520.7905
  A 0.85 0.85 0.0 0 0 323.7921 521.9112
  L 323.8083 521.9478
  A 0.85 0.85 0.0 0 0 324.9290 522.3825
  L 353.0732 509.9695
  A 0.85 0.85 0.0 0 0 353.5079 508.8488
  L 353.4917 508.8122"
/>
<path stroke="#8ec7ff" vector-effect="non-scaling-stroke" d="
  M 449.77 547.28
  A 0.64 0.64 0.0 0 1 450.67 548.17
  L 432.05 574.32
  Q 431.62 574.92 432.35 574.98
  C 435.37 575.20 437.94 575.52 441.00 574.63
  Q 447.39 572.76 453.69 570.92
  A 1.12 1.11 -11.1 0 0 454.50 569.73
  Q 453.28 557.61 452.02 545.32
  C 451.36 538.93 449.76 532.61 448.50 526.25
  Q 448.41 525.82 447.97 525.79
  L 380.94 520.63
  Q 380.33 520.58 380.37 521.19
  L 383.88 566.52
  A 2.76 2.76 0.0 0 0 385.87 568.96
  C 391.78 570.63 398.22 573.54 404.35 573.86
  Q 414.28 574.39 424.34 574.60
  Q 424.87 574.61 425.19 574.19
  L 446.62 545.91
  A 1.03 1.03 0.0 0 1 447.14 545.54
  Q 448.97 544.95 448.21 545.97
  Q 437.81 560.07 427.53 574.38
  A 0.32 0.32 0.0 0 0 427.96 574.84
  Q 429.61 573.81 430.87 572.11
  Q 440.00 559.88 449.30 547.78
  Q 449.55 547.45 449.77 547.28"
/>
<path stroke="#8ec7ff" vector-effect="non-scaling-stroke" d="
  M 322.13 524.05
  A 0.71 0.71 0.0 0 0 321.00 523.43
  L 309.25 531.93
  A 0.71 0.71 0.0 0 0 308.96 532.49
  L 308.00 566.48
  A 0.71 0.71 0.0 0 0 308.82 567.20
  L 319.29 565.56
  A 0.71 0.71 0.0 0 0 319.89 564.90
  L 322.13 524.05"
/>
<path stroke="#8ec7ff" vector-effect="non-scaling-stroke" d="
  M 307.33 533.86
  A 0.30 0.30 0.0 0 0 306.86 533.60
  L 297.37 540.26
  A 0.30 0.30 0.0 0 0 297.24 540.49
  L 295.70 568.96
  A 0.30 0.30 0.0 0 0 296.05 569.27
  L 306.12 567.65
  A 0.30 0.30 0.0 0 0 306.38 567.36
  L 307.33 533.86"
/>
<path stroke="#8ec7ff" vector-effect="non-scaling-stroke" d="
  M 416.23 591.24
  L 415.97 579.25
  Q 415.96 578.72 416.49 578.72
  L 421.64 578.77
  A 0.74 0.74 0.0 0 0 421.74 577.29
  Q 418.23 576.85 414.85 577.46
  Q 414.35 577.55 414.36 578.05
  L 414.75 592.00
  A 1.28 1.27 89.1 0 0 416.02 593.24
  L 439.28 593.25
  A 1.01 1.00 -0.8 0 0 440.29 592.22
  L 439.93 578.54
  Q 439.91 577.98 439.36 577.94
  Q 432.99 577.41 429.52 577.74
  Q 428.68 577.81 428.67 578.58
  Q 428.67 579.11 429.20 579.12
  L 437.86 579.30
  Q 438.42 579.31 438.43 579.86
  L 438.71 591.27
  Q 438.72 591.75 438.23 591.75
  L 416.75 591.75
  Q 416.24 591.75 416.23 591.24"
/>
<path stroke="#8ec7ff" vector-effect="non-scaling-stroke" d="
  M 387.07 579.43
  C 385.60 581.80 385.84 589.48 387.30 591.82
  C 389.67 595.60 398.57 600.15 399.99 592.71
  Q 400.28 591.18 399.94 590.51
  Q 398.66 588.03 393.75 579.81
  C 392.11 577.07 388.59 576.98 387.07 579.43"
/>
<path stroke="#8ec7ff" vector-effect="non-scaling-stroke" d="
  M 444.08 590.07
  C 443.33 592.66 443.62 597.88 447.92 596.87
  C 456.24 594.93 456.64 588.93 454.12 582.04
  Q 452.66 578.06 449.69 579.86
  A 2.45 2.37 -87.4 0 0 448.94 580.57
  C 447.14 583.21 444.75 587.81 444.08 590.07"
/>
<path stroke="#8ec7ff" vector-effect="non-scaling-stroke" d="
  M 387.09 506.91
  A 1.21 1.21 0.0 0 1 387.47 504.53
  L 389.25 504.68
  A 0.67 0.67 0.0 0 0 389.97 504.06
  L 390.03 503.12
  A 0.66 0.66 0.0 0 0 389.36 502.41
  L 384.69 502.52
  A 0.68 0.68 0.0 0 0 384.03 503.16
  L 383.80 507.34
  A 1.59 1.58 4.6 0 0 385.22 509.00
  L 387.87 509.27
  Q 388.53 509.34 388.51 510.00
  L 388.41 512.88
  Q 388.39 513.64 387.63 513.64
  L 384.43 513.67
  A 0.86 0.86 0.0 0 0 384.09 515.32
  C 390.09 517.89 392.10 512.53 390.02 508.03
  A 1.11 1.11 0.0 0 0 389.26 507.42
  L 387.09 506.91"
/>
<path stroke="#8ec7ff" vector-effect="non-scaling-stroke" d="
  M 404.72 510.24
  L 404.92 507.00
  A 0.36 0.36 0.0 0 0 404.62 506.62
  L 404.26 506.56
  Q 403.75 506.47 403.74 506.99
  L 403.62 514.51
  Q 403.61 515.22 403.00 514.85
  Q 402.06 514.28 401.13 514.83
  A 0.20 0.19 31.4 0 0 401.22 515.19
  L 404.20 515.40
  Q 404.61 515.43 404.66 515.03
  L 405.01 512.46
  A 0.55 0.55 0.0 0 1 406.09 512.44
  L 406.67 515.64
  Q 406.78 516.24 407.38 516.16
  L 407.68 516.12
  A 0.53 0.53 0.0 0 0 408.08 515.36
  Q 406.06 511.30 407.83 507.46
  Q 408.14 506.79 407.43 506.97
  Q 406.57 507.19 406.27 508.25
  Q 405.94 509.43 405.20 510.42
  Q 404.66 511.15 404.72 510.24"
/>
<path stroke="#8ec7ff" vector-effect="non-scaling-stroke" d="
  M 410.62 512.48
  L 411.59 512.58
  A 0.59 0.59 0.0 0 1 412.12 513.21
  L 411.91 516.16
  A 0.38 0.37 -75.3 0 0 412.12 516.53
  L 412.44 516.68
  Q 413.03 516.96 413.04 516.31
  L 413.23 507.78
  A 0.45 0.45 0.0 0 0 412.34 507.70
  L 411.89 510.76
  Q 411.80 511.35 411.22 511.18
  L 410.53 510.97
  A 0.69 0.68 -80.2 0 1 410.04 510.26
  L 410.22 507.64
  A 0.53 0.53 0.0 0 0 409.17 507.53
  Q 408.59 511.71 408.94 515.92
  Q 408.97 516.19 409.22 516.26
  Q 409.38 516.30 409.56 516.35
  A 0.28 0.27 6.8 0 0 409.90 516.09
  L 409.90 513.13
  Q 409.90 512.40 410.62 512.48"
/>
<path stroke="#8ec7ff" vector-effect="non-scaling-stroke" d="
  M 393.89 509.60
  L 393.88 508.00
  A 0.58 0.48 -50.3 0 0 392.84 508.20
  L 392.75 514.00
  Q 392.74 514.51 393.24 514.58
  L 393.50 514.61
  Q 393.93 514.67 393.93 514.24
  L 393.95 512.46
  A 0.45 0.45 0.0 0 1 394.83 512.34
  L 395.42 514.37
  Q 395.49 514.62 395.75 514.68
  L 396.23 514.80
  A 0.44 0.44 0.0 0 0 396.69 514.12
  Q 394.71 511.29 396.45 508.62
  Q 396.73 508.18 396.21 508.22
  L 395.81 508.25
  A 0.76 0.76 0.0 0 0 395.13 508.78
  Q 394.92 509.41 394.43 509.84
  Q 393.89 510.31 393.89 509.60"
/>
<path stroke="#8ec7ff" vector-effect="non-scaling-stroke" d="
  M 415.99 513.78
  A 0.71 0.71 0.0 0 1 417.38 514.03
  L 417.12 516.82
  Q 417.08 517.23 417.49 517.24
  Q 417.71 517.24 417.93 517.25
  A 0.62 0.61 -89.0 0 0 418.54 516.65
  L 418.70 509.04
  Q 418.72 508.25 417.93 508.16
  L 415.88 507.95
  A 1.01 1.01 0.0 0 0 414.95 508.38
  Q 413.46 510.56 414.91 512.60
  A 0.94 0.92 -53.8 0 1 415.03 513.43
  L 414.04 516.35
  Q 413.90 516.75 414.29 516.92
  Q 414.51 517.02 414.74 516.93
  Q 414.99 516.82 415.14 516.42
  Q 415.65 515.05 415.99 513.78"
/>
<path stroke="#8ec7ff" vector-effect="non-scaling-stroke" d="
  M 397.11 514.33
  A 0.43 0.42 15.2 0 0 397.31 514.67
  C 399.74 516.15 401.74 514.68 400.53 512.11
  Q 400.32 511.67 400.55 511.24
  Q 401.37 509.66 400.02 508.47
  A 1.76 1.76 0.0 0 0 397.09 509.80
  L 397.11 514.33"
/>
<path stroke="#8ec7ff" vector-effect="non-scaling-stroke" d="
  M 422.12 514.21
  L 421.96 517.70
  Q 421.95 517.92 422.16 517.87
  Q 422.34 517.83 422.51 517.80
  Q 422.98 517.71 422.99 517.23
  L 423.00 514.49
  A 0.32 0.32 0.0 0 1 423.62 514.39
  L 424.78 517.58
  Q 424.96 518.06 425.47 518.11
  L 429.71 518.56
  A 0.56 0.55 -5.8 0 0 430.30 517.84
  Q 429.89 516.57 428.46 516.99
  A 0.61 0.60 -9.1 0 1 427.69 516.44
  L 427.63 515.17
  Q 427.60 514.44 428.33 514.48
  L 429.56 514.53
  A 0.54 0.54 0.0 0 0 429.78 513.48
  L 428.11 512.83
  A 0.59 0.58 11.4 0 1 427.73 512.27
  L 427.76 511.07
  Q 427.78 510.41 428.41 510.58
  Q 429.12 510.78 429.66 510.89
  A 0.78 0.65 -27.6 0 0 430.21 509.56
  Q 428.81 509.23 427.43 509.09
  Q 426.75 509.03 426.73 509.71
  L 426.47 517.28
  A 0.20 0.19 -61.9 0 1 426.12 517.39
  Q 423.35 513.55 425.73 509.77
  A 0.43 0.43 0.0 0 0 425.05 509.26
  Q 424.11 510.30 423.63 511.63
  A 0.44 0.44 0.0 0 1 422.78 511.39
  L 423.26 509.20
  A 0.42 0.41 -62.4 0 0 423.14 508.81
  L 422.89 508.57
  A 0.42 0.42 0.0 0 0 422.18 508.84
  L 422.02 511.14
  A 0.32 0.32 0.0 0 1 421.40 511.21
  L 420.74 509.02
  Q 420.59 508.52 420.08 508.44
  Q 419.94 508.42 419.79 508.44
  Q 419.08 508.56 419.46 509.18
  Q 421.94 513.18 418.96 516.75
  Q 418.58 517.19 419.13 517.40
  Q 419.52 517.55 419.92 517.32
  A 0.51 0.46 -6.2 0 0 420.11 517.11
  L 421.59 514.08
  A 0.28 0.28 0.0 0 1 422.12 514.21"
/>
<path stroke="#8ec7ff" vector-effect="non-scaling-stroke" d="
  M 435.37 517.26
  C 435.60 515.33 434.18 515.04 435.36 512.84
  Q 435.62 512.35 435.45 511.83
  Q 434.63 509.32 431.84 509.76
  Q 431.36 509.84 431.35 510.32
  L 431.16 517.32
  A 2.02 2.02 0.0 0 0 434.32 519.04
  Q 435.23 518.42 435.37 517.26"
/>
<path stroke="#8ec7ff" vector-effect="non-scaling-stroke" d="
  M 438.5200 519.8100
  A 4.80 2.44 90.0 0 0 440.9600 515.0100
  A 4.80 2.44 90.0 0 0 438.5200 510.2100
  A 4.80 2.44 90.0 0 0 436.0800 515.0100
  A 4.80 2.44 90.0 0 0 438.5200 519.8100"
/>
<path stroke="#8ec7ff" vector-effect="non-scaling-stroke" d="
  M 416.7017 512.0984
  A 1.43 1.08 82.7 0 0 417.5912 510.5428
  A 1.43 1.08 82.7 0 0 416.3383 509.2616
  A 1.43 1.08 82.7 0 0 415.4488 510.8172
  A 1.43 1.08 82.7 0 0 416.7017 512.0984"
/>
<path stroke="#8ec7ff" vector-effect="non-scaling-stroke" d="
  M 398.54 509.61
  Q 398.11 509.67 398.05 510.09
  L 398.00 510.44
  Q 397.92 510.95 398.44 510.98
  L 399.53 511.03
  A 0.48 0.48 0.0 0 0 400.00 510.38
  Q 399.64 509.45 398.54 509.61"
/>
<path stroke="#8ec7ff" vector-effect="non-scaling-stroke" d="
  M 399.8407 513.7290
  A 1.17 0.92 37.3 0 0 399.4675 512.2882
  A 1.17 0.92 37.3 0 0 397.9793 512.3110
  A 1.17 0.92 37.3 0 0 398.3525 513.7518
  A 1.17 0.92 37.3 0 0 399.8407 513.7290"
/>
<path stroke="#8ec7ff" vector-effect="non-scaling-stroke" d="
  M 433.3275 513.8058
  A 1.37 1.01 85.5 0 0 434.2269 512.3608
  A 1.37 1.01 85.5 0 0 433.1125 511.0742
  A 1.37 1.01 85.5 0 0 432.2131 512.5192
  A 1.37 1.01 85.5 0 0 433.3275 513.8058"
/>
<path stroke="#8ec7ff" vector-effect="non-scaling-stroke" d="
  M 433.14 514.96
  A 0.66 0.66 0.0 0 0 432.27 515.57
  L 432.25 516.91
  A 0.90 0.89 60.6 0 0 433.92 517.38
  Q 434.97 515.59 433.14 514.96"
/>
<path stroke="#8ec7ff" vector-effect="non-scaling-stroke" d="
  M 438.4114 518.3395
  A 3.36 1.23 91.0 0 0 439.6998 515.0015
  A 3.36 1.23 91.0 0 0 438.5286 511.6205
  A 3.36 1.23 91.0 0 0 437.2402 514.9585
  A 3.36 1.23 91.0 0 0 438.4114 518.3395"
/>
<path stroke="#8ec7ff" vector-effect="non-scaling-stroke" d="
  M 392.43 579.79
  C 390.66 577.10 387.21 579.32 387.25 582.00
  C 387.31 586.01 386.38 591.01 390.39 593.61
  C 392.92 595.25 397.74 597.63 399.07 593.12
  Q 399.45 591.81 398.50 590.03
  Q 395.70 584.76 392.43 579.79"
/>
<path stroke="#8ec7ff" vector-effect="non-scaling-stroke" d="
  M 292.4804 600.5372
  A 0.76 0.76 0.0 0 0 291.6767 599.8237
  L 291.6168 599.8272
  A 0.76 0.76 0.0 0 0 290.9032 600.6310
  L 291.1796 605.2828
  A 0.76 0.76 0.0 0 0 291.9833 605.9963
  L 292.0432 605.9928
  A 0.76 0.76 0.0 0 0 292.7568 605.1890
  L 292.4804 600.5372"
/>
<path stroke="#8ec7ff" vector-effect="non-scaling-stroke" d="
  M 357.5418 585.3584
  A 1.65 1.65 0.0 0 0 356.0419 583.5709
  L 354.3484 583.4227
  A 1.65 1.65 0.0 0 0 352.5608 584.9226
  L 352.5382 585.1816
  A 1.65 1.65 0.0 0 0 354.0381 586.9691
  L 355.7316 587.1173
  A 1.65 1.65 0.0 0 0 357.5192 585.6174
  L 357.5418 585.3584"
/>
<path stroke="#8ec7ff" vector-effect="non-scaling-stroke" d="
  M 390.0764 585.0188
  A 2.22 1.32 91.9 0 0 391.4693 582.8438
  A 2.22 1.32 91.9 0 0 390.2236 580.5812
  A 2.22 1.32 91.9 0 0 388.8307 582.7562
  A 2.22 1.32 91.9 0 0 390.0764 585.0188"
/>
<path stroke="#8ec7ff" vector-effect="non-scaling-stroke" d="
  M 391.5148 591.8384
  A 2.86 2.25 88.1 0 0 393.6688 588.9054
  A 2.86 2.25 88.1 0 0 391.3252 586.1216
  A 2.86 2.25 88.1 0 0 389.1712 589.0546
  A 2.86 2.25 88.1 0 0 391.5148 591.8384"
/>
<path stroke="#8ec7ff" vector-effect="non-scaling-stroke" d="
  M 395.8014 593.8552
  A 1.93 1.37 97.1 0 0 397.3995 592.1093
  A 1.93 1.37 97.1 0 0 396.2786 590.0248
  A 1.93 1.37 97.1 0 0 394.6805 591.7707
  A 1.93 1.37 97.1 0 0 395.8014 593.8552"
/>
<path stroke="#8ec7ff" vector-effect="non-scaling-stroke" d="
  M 450.72 580.37
  C 448.22 581.80 445.73 588.39 444.86 591.08
  C 444.18 593.19 444.56 595.07 446.51 596.11
  Q 446.95 596.35 447.43 596.21
  C 450.70 595.28 454.16 593.39 454.42 589.57
  Q 454.72 585.25 452.86 581.07
  A 1.52 1.51 62.9 0 0 450.72 580.37"
/>
<path stroke="#8ec7ff" vector-effect="non-scaling-stroke" d="
  M 451.3569 585.5395
  A 2.06 1.29 91.2 0 0 452.6897 583.5070
  A 2.06 1.29 91.2 0 0 451.4431 581.4205
  A 2.06 1.29 91.2 0 0 450.1103 583.4530
  A 2.06 1.29 91.2 0 0 451.3569 585.5395"
/>
<path stroke="#8ec7ff" vector-effect="non-scaling-stroke" d="
  M 450.8562 591.9885
  A 2.40 1.93 92.0 0 0 452.8688 589.6574
  A 2.40 1.93 92.0 0 0 451.0238 587.1915
  A 2.40 1.93 92.0 0 0 449.0112 589.5226
  A 2.40 1.93 92.0 0 0 450.8562 591.9885"
/>
<path stroke="#8ec7ff" vector-effect="non-scaling-stroke" d="
  M 446.8389 594.1693
  A 1.80 1.32 100.6 0 0 448.4675 592.6428
  A 1.80 1.32 100.6 0 0 447.5011 590.6307
  A 1.80 1.32 100.6 0 0 445.8725 592.1572
  A 1.80 1.32 100.6 0 0 446.8389 594.1693"
/>
</g>
<path fill="#1e90ff" d="
  M 0.00 0.00
  L 750.00 0.00
  L 750.00 1125.00
  L 0.00 1125.00
  L 0.00 0.00
  Z
  M 334.71 520.23
  Q 333.56 547.00 332.02 573.75
  Q 331.85 576.75 332.03 579.76
  Q 333.44 603.20 334.74 626.69
  Q 334.78 627.33 334.19 627.08
  L 325.96 623.54
  Q 325.23 623.22 325.24 624.02
  L 325.26 625.08
  A 1.19 1.19 0.0 0 0 325.98 626.14
  L 351.65 637.19
  Q 352.33 637.49 352.45 636.76
  L 352.65 635.61
  Q 352.77 634.92 352.12 634.64
  L 341.02 629.97
  Q 340.53 629.77 340.51 629.24
  Q 339.63 608.86 338.77 588.48
  Q 338.35 578.60 338.87 568.52
  Q 340.19 542.95 341.26 517.34
  A 0.81 0.81 0.0 0 1 341.76 516.62
  L 352.95 511.83
  Q 353.49 511.60 353.47 512.19
  L 351.12 575.74
  Q 351.10 576.21 351.55 576.34
  C 352.02 576.47 352.48 576.53 352.90 576.78
  Q 373.82 589.36 395.50 599.58
  A 3.18 3.16 39.0 0 0 398.75 599.25
  L 402.98 596.09
  Q 403.36 595.81 403.84 595.82
  L 440.21 596.57
  Q 440.78 596.58 441.10 597.06
  C 443.09 600.05 445.55 600.13 448.71 598.51
  Q 453.83 595.88 458.95 593.20
  A 0.85 0.84 -13.1 0 0 459.40 592.49
  Q 459.79 583.38 459.30 577.76
  Q 458.13 564.46 455.59 545.16
  C 453.37 528.23 449.11 511.46 445.03 495.01
  A 3.11 3.10 0.2 0 0 442.79 492.76
  Q 435.12 490.76 427.72 489.18
  C 415.71 486.63 402.76 486.05 390.33 485.01
  C 384.43 484.52 378.77 484.73 372.95 484.96
  Q 370.84 485.05 369.00 486.13
  Q 348.85 497.96 328.50 509.47
  Q 323.70 512.18 319.51 515.68
  Q 304.88 527.92 290.24 540.16
  Q 289.83 540.50 289.83 541.03
  L 289.80 544.93
  Q 289.79 545.67 290.40 545.23
  L 295.03 541.88
  A 0.37 0.37 0.0 0 1 295.62 542.20
  L 294.09 568.98
  Q 294.06 569.54 293.51 569.64
  L 290.38 570.21
  Q 289.83 570.31 289.82 570.87
  L 289.81 576.56
  A 0.50 0.50 0.0 0 0 290.31 577.06
  L 321.52 577.06
  Q 322.11 577.06 322.13 576.47
  L 323.83 525.29
  A 1.30 1.28 -11.3 0 1 324.59 524.17
  L 334.19 519.88
  Q 334.73 519.64 334.71 520.23
  Z
  M 299.87 601.71
  A 1.45 1.45 0.0 0 1 301.84 600.59
  L 318.22 607.23
  Q 318.63 607.39 318.70 607.83
  Q 319.81 615.81 321.69 623.64
  C 321.86 624.36 322.44 624.99 323.06 625.28
  A 0.60 0.60 0.0 0 0 323.91 624.72
  L 322.33 579.30
  Q 322.31 578.67 321.68 578.67
  L 290.34 578.66
  Q 289.84 578.66 289.84 579.16
  L 289.80 606.35
  Q 289.80 606.96 290.33 607.25
  L 297.70 611.32
  Q 298.31 611.66 298.41 610.97
  L 299.87 601.71
  Z
  M 445.13 601.17
  Q 442.39 600.77 440.43 598.56
  Q 440.09 598.18 439.57 598.17
  L 404.18 597.42
  Q 403.72 597.42 403.35 597.69
  C 401.20 599.25 398.07 602.43 395.22 601.09
  Q 373.84 591.00 353.25 578.72
  Q 352.15 578.06 351.57 579.21
  Q 351.35 579.64 351.42 581.00
  Q 352.79 609.20 354.12 637.39
  Q 354.14 637.87 354.54 638.11
  C 356.67 639.43 358.12 640.33 360.78 640.07
  C 370.23 639.13 379.43 637.44 388.97 637.14
  Q 395.21 636.95 401.44 636.56
  Q 401.99 636.52 402.00 635.97
  L 402.32 622.61
  Q 402.33 622.19 401.93 622.04
  C 397.74 620.46 396.04 615.92 398.79 612.32
  Q 400.44 610.17 403.00 610.18
  Q 426.59 610.29 450.21 610.49
  Q 452.66 610.51 453.89 611.74
  C 456.09 613.95 456.57 620.02 452.23 620.52
  Q 448.52 620.95 442.14 620.99
  Q 441.61 620.99 441.56 621.52
  L 440.49 634.43
  Q 440.45 634.90 440.93 634.89
  L 457.32 634.47
  A 2.51 2.51 0.0 0 0 459.76 631.93
  L 459.41 595.23
  Q 459.40 594.80 459.00 594.98
  Q 453.83 597.26 449.05 600.11
  Q 446.87 601.42 445.13 601.17
  Z
  M 300.60 612.56
  C 306.72 615.94 312.83 619.50 319.01 622.76
  Q 319.51 623.02 319.54 622.46
  Q 319.58 621.23 318.58 620.62
  Q 311.94 616.59 300.87 611.08
  A 0.58 0.57 29.7 0 0 300.12 611.28
  Q 299.93 611.56 299.98 611.87
  Q 300.05 612.26 300.60 612.56
  Z
  M 438.75 635.05
  A 0.32 0.32 0.0 0 0 439.06 634.76
  L 440.01 621.45
  A 0.32 0.32 0.0 0 0 439.69 621.11
  L 404.17 622.26
  A 0.32 0.32 0.0 0 0 403.86 622.57
  L 403.47 636.19
  A 0.32 0.32 0.0 0 0 403.80 636.52
  L 438.75 635.05
  Z"
/>
<path fill="#fefeff" d="
  M 334.19 519.88
  L 324.59 524.17
  A 1.30 1.28 -11.3 0 0 323.83 525.29
  L 322.13 576.47
  Q 322.11 577.06 321.52 577.06
  L 290.31 577.06
  A 0.50 0.50 0.0 0 1 289.81 576.56
  L 289.82 570.87
  Q 289.83 570.31 290.38 570.21
  L 293.51 569.64
  Q 294.06 569.54 294.09 568.98
  L 295.62 542.20
  A 0.37 0.37 0.0 0 0 295.03 541.88
  L 290.40 545.23
  Q 289.79 545.67 289.80 544.93
  L 289.83 541.03
  Q 289.83 540.50 290.24 540.16
  Q 304.88 527.92 319.51 515.68
  Q 323.70 512.18 328.50 509.47
  Q 348.85 497.96 369.00 486.13
  Q 370.84 485.05 372.95 484.96
  C 378.77 484.73 384.43 484.52 390.33 485.01
  C 402.76 486.05 415.71 486.63 427.72 489.18
  Q 435.12 490.76 442.79 492.76
  A 3.11 3.10 0.2 0 1 445.03 495.01
  C 449.11 511.46 453.37 528.23 455.59 545.16
  Q 458.13 564.46 459.30 577.76
  Q 459.79 583.38 459.40 592.49
  A 0.85 0.84 -13.1 0 1 458.95 593.20
  Q 453.83 595.88 448.71 598.51
  C 445.55 600.13 443.09 600.05 441.10 597.06
  Q 440.78 596.58 440.21 596.57
  L 403.84 595.82
  Q 403.36 595.81 402.98 596.09
  L 398.75 599.25
  A 3.18 3.16 39.0 0 1 395.50 599.58
  Q 373.82 589.36 352.90 576.78
  C 352.48 576.53 352.02 576.47 351.55 576.34
  Q 351.10 576.21 351.12 575.74
  L 353.47 512.19
  Q 353.49 511.60 352.95 511.83
  L 341.76 516.62
  A 0.81 0.81 0.0 0 0 341.26 517.34
  Q 340.19 542.95 338.87 568.52
  Q 338.35 578.60 338.77 588.48
  Q 339.63 608.86 340.51 629.24
  Q 340.53 629.77 341.02 629.97
  L 352.12 634.64
  Q 352.77 634.92 352.65 635.61
  L 352.45 636.76
  Q 352.33 637.49 351.65 637.19
  L 325.98 626.14
  A 1.19 1.19 0.0 0 1 325.26 625.08
  L 325.24 624.02
  Q 325.23 623.22 325.96 623.54
  L 334.19 627.08
  Q 334.78 627.33 334.74 626.69
  Q 333.44 603.20 332.03 579.76
  Q 331.85 576.75 332.02 573.75
  Q 333.56 547.00 334.71 520.23
  Q 334.73 519.64 334.19 519.88
  Z
  M 377.24 497.59
  A 0.63 0.63 0.0 0 0 376.55 498.32
  L 379.86 518.47
  A 0.63 0.63 0.0 0 0 380.43 519.00
  L 447.23 524.15
  A 0.63 0.63 0.0 0 0 447.90 523.39
  L 444.04 504.86
  A 0.63 0.63 0.0 0 0 443.49 504.36
  L 377.24 497.59
  Z
  M 368.45 500.75
  L 357.00 504.95
  A 1.17 1.16 81.0 0 0 356.24 506.00
  L 354.38 560.21
  A 1.09 1.08 14.2 0 0 354.98 561.21
  L 374.70 570.87
  A 0.91 0.91 0.0 0 0 376.01 570.03
  Q 375.64 555.42 374.57 540.59
  C 373.66 528.07 371.21 514.42 369.52 501.40
  Q 369.39 500.41 368.45 500.75
  Z
  M 353.4917 508.8122
  A 0.85 0.85 0.0 0 0 352.3710 508.3775
  L 324.2268 520.7905
  A 0.85 0.85 0.0 0 0 323.7921 521.9112
  L 323.8083 521.9478
  A 0.85 0.85 0.0 0 0 324.9290 522.3825
  L 353.0732 509.9695
  A 0.85 0.85 0.0 0 0 353.5079 508.8488
  L 353.4917 508.8122
  Z
  M 449.77 547.28
  A 0.64 0.64 0.0 0 1 450.67 548.17
  L 432.05 574.32
  Q 431.62 574.92 432.35 574.98
  C 435.37 575.20 437.94 575.52 441.00 574.63
  Q 447.39 572.76 453.69 570.92
  A 1.12 1.11 -11.1 0 0 454.50 569.73
  Q 453.28 557.61 452.02 545.32
  C 451.36 538.93 449.76 532.61 448.50 526.25
  Q 448.41 525.82 447.97 525.79
  L 380.94 520.63
  Q 380.33 520.58 380.37 521.19
  L 383.88 566.52
  A 2.76 2.76 0.0 0 0 385.87 568.96
  C 391.78 570.63 398.22 573.54 404.35 573.86
  Q 414.28 574.39 424.34 574.60
  Q 424.87 574.61 425.19 574.19
  L 446.62 545.91
  A 1.03 1.03 0.0 0 1 447.14 545.54
  Q 448.97 544.95 448.21 545.97
  Q 437.81 560.07 427.53 574.38
  A 0.32 0.32 0.0 0 0 427.96 574.84
  Q 429.61 573.81 430.87 572.11
  Q 440.00 559.88 449.30 547.78
  Q 449.55 547.45 449.77 547.28
  Z
  M 322.13 524.05
  A 0.71 0.71 0.0 0 0 321.00 523.43
  L 309.25 531.93
  A 0.71 0.71 0.0 0 0 308.96 532.49
  L 308.00 566.48
  A 0.71 0.71 0.0 0 0 308.82 567.20
  L 319.29 565.56
  A 0.71 0.71 0.0 0 0 319.89 564.90
  L 322.13 524.05
  Z
  M 307.33 533.86
  A 0.30 0.30 0.0 0 0 306.86 533.60
  L 297.37 540.26
  A 0.30 0.30 0.0 0 0 297.24 540.49
  L 295.70 568.96
  A 0.30 0.30 0.0 0 0 296.05 569.27
  L 306.12 567.65
  A 0.30 0.30 0.0 0 0 306.38 567.36
  L 307.33 533.86
  Z
  M 416.23 591.24
  L 415.97 579.25
  Q 415.96 578.72 416.49 578.72
  L 421.64 578.77
  A 0.74 0.74 0.0 0 0 421.74 577.29
  Q 418.23 576.85 414.85 577.46
  Q 414.35 577.55 414.36 578.05
  L 414.75 592.00
  A 1.28 1.27 89.1 0 0 416.02 593.24
  L 439.28 593.25
  A 1.01 1.00 -0.8 0 0 440.29 592.22
  L 439.93 578.54
  Q 439.91 577.98 439.36 577.94
  Q 432.99 577.41 429.52 577.74
  Q 428.68 577.81 428.67 578.58
  Q 428.67 579.11 429.20 579.12
  L 437.86 579.30
  Q 438.42 579.31 438.43 579.86
  L 438.71 591.27
  Q 438.72 591.75 438.23 591.75
  L 416.75 591.75
  Q 416.24 591.75 416.23 591.24
  Z
  M 387.07 579.43
  C 385.60 581.80 385.84 589.48 387.30 591.82
  C 389.67 595.60 398.57 600.15 399.99 592.71
  Q 400.28 591.18 399.94 590.51
  Q 398.66 588.03 393.75 579.81
  C 392.11 577.07 388.59 576.98 387.07 579.43
  Z
  M 444.08 590.07
  C 443.33 592.66 443.62 597.88 447.92 596.87
  C 456.24 594.93 456.64 588.93 454.12 582.04
  Q 452.66 578.06 449.69 579.86
  A 2.45 2.37 -87.4 0 0 448.94 580.57
  C 447.14 583.21 444.75 587.81 444.08 590.07
  Z"
/>
<path fill="#1e90ff" d="
  M 377.24 497.59
  L 443.49 504.36
  A 0.63 0.63 0.0 0 1 444.04 504.86
  L 447.90 523.39
  A 0.63 0.63 0.0 0 1 447.23 524.15
  L 380.43 519.00
  A 0.63 0.63 0.0 0 1 379.86 518.47
  L 376.55 498.32
  A 0.63 0.63 0.0 0 1 377.24 497.59
  Z
  M 387.09 506.91
  A 1.21 1.21 0.0 0 1 387.47 504.53
  L 389.25 504.68
  A 0.67 0.67 0.0 0 0 389.97 504.06
  L 390.03 503.12
  A 0.66 0.66 0.0 0 0 389.36 502.41
  L 384.69 502.52
  A 0.68 0.68 0.0 0 0 384.03 503.16
  L 383.80 507.34
  A 1.59 1.58 4.6 0 0 385.22 509.00
  L 387.87 509.27
  Q 388.53 509.34 388.51 510.00
  L 388.41 512.88
  Q 388.39 513.64 387.63 513.64
  L 384.43 513.67
  A 0.86 0.86 0.0 0 0 384.09 515.32
  C 390.09 517.89 392.10 512.53 390.02 508.03
  A 1.11 1.11 0.0 0 0 389.26 507.42
  L 387.09 506.91
  Z
  M 404.72 510.24
  L 404.92 507.00
  A 0.36 0.36 0.0 0 0 404.62 506.62
  L 404.26 506.56
  Q 403.75 506.47 403.74 506.99
  L 403.62 514.51
  Q 403.61 515.22 403.00 514.85
  Q 402.06 514.28 401.13 514.83
  A 0.20 0.19 31.4 0 0 401.22 515.19
  L 404.20 515.40
  Q 404.61 515.43 404.66 515.03
  L 405.01 512.46
  A 0.55 0.55 0.0 0 1 406.09 512.44
  L 406.67 515.64
  Q 406.78 516.24 407.38 516.16
  L 407.68 516.12
  A 0.53 0.53 0.0 0 0 408.08 515.36
  Q 406.06 511.30 407.83 507.46
  Q 408.14 506.79 407.43 506.97
  Q 406.57 507.19 406.27 508.25
  Q 405.94 509.43 405.20 510.42
  Q 404.66 511.15 404.72 510.24
  Z
  M 410.62 512.48
  L 411.59 512.58
  A 0.59 0.59 0.0 0 1 412.12 513.21
  L 411.91 516.16
  A 0.38 0.37 -75.3 0 0 412.12 516.53
  L 412.44 516.68
  Q 413.03 516.96 413.04 516.31
  L 413.23 507.78
  A 0.45 0.45 0.0 0 0 412.34 507.70
  L 411.89 510.76
  Q 411.80 511.35 411.22 511.18
  L 410.53 510.97
  A 0.69 0.68 -80.2 0 1 410.04 510.26
  L 410.22 507.64
  A 0.53 0.53 0.0 0 0 409.17 507.53
  Q 408.59 511.71 408.94 515.92
  Q 408.97 516.19 409.22 516.26
  Q 409.38 516.30 409.56 516.35
  A 0.28 0.27 6.8 0 0 409.90 516.09
  L 409.90 513.13
  Q 409.90 512.40 410.62 512.48
  Z
  M 393.89 509.60
  L 393.88 508.00
  A 0.58 0.48 -50.3 0 0 392.84 508.20
  L 392.75 514.00
  Q 392.74 514.51 393.24 514.58
  L 393.50 514.61
  Q 393.93 514.67 393.93 514.24
  L 393.95 512.46
  A 0.45 0.45 0.0 0 1 394.83 512.34
  L 395.42 514.37
  Q 395.49 514.62 395.75 514.68
  L 396.23 514.80
  A 0.44 0.44 0.0 0 0 396.69 514.12
  Q 394.71 511.29 396.45 508.62
  Q 396.73 508.18 396.21 508.22
  L 395.81 508.25
  A 0.76 0.76 0.0 0 0 395.13 508.78
  Q 394.92 509.41 394.43 509.84
  Q 393.89 510.31 393.89 509.60
  Z
  M 415.99 513.78
  A 0.71 0.71 0.0 0 1 417.38 514.03
  L 417.12 516.82
  Q 417.08 517.23 417.49 517.24
  Q 417.71 517.24 417.93 517.25
  A 0.62 0.61 -89.0 0 0 418.54 516.65
  L 418.70 509.04
  Q 418.72 508.25 417.93 508.16
  L 415.88 507.95
  A 1.01 1.01 0.0 0 0 414.95 508.38
  Q 413.46 510.56 414.91 512.60
  A 0.94 0.92 -53.8 0 1 415.03 513.43
  L 414.04 516.35
  Q 413.90 516.75 414.29 516.92
  Q 414.51 517.02 414.74 516.93
  Q 414.99 516.82 415.14 516.42
  Q 415.65 515.05 415.99 513.78
  Z
  M 397.11 514.33
  A 0.43 0.42 15.2 0 0 397.31 514.67
  C 399.74 516.15 401.74 514.68 400.53 512.11
  Q 400.32 511.67 400.55 511.24
  Q 401.37 509.66 400.02 508.47
  A 1.76 1.76 0.0 0 0 397.09 509.80
  L 397.11 514.33
  Z
  M 422.12 514.21
  L 421.96 517.70
  Q 421.95 517.92 422.16 517.87
  Q 422.34 517.83 422.51 517.80
  Q 422.98 517.71 422.99 517.23
  L 423.00 514.49
  A 0.32 0.32 0.0 0 1 423.62 514.39
  L 424.78 517.58
  Q 424.96 518.06 425.47 518.11
  L 429.71 518.56
  A 0.56 0.55 -5.8 0 0 430.30 517.84
  Q 429.89 516.57 428.46 516.99
  A 0.61 0.60 -9.1 0 1 427.69 516.44
  L 427.63 515.17
  Q 427.60 514.44 428.33 514.48
  L 429.56 514.53
  A 0.54 0.54 0.0 0 0 429.78 513.48
  L 428.11 512.83
  A 0.59 0.58 11.4 0 1 427.73 512.27
  L 427.76 511.07
  Q 427.78 510.41 428.41 510.58
  Q 429.12 510.78 429.66 510.89
  A 0.78 0.65 -27.6 0 0 430.21 509.56
  Q 428.81 509.23 427.43 509.09
  Q 426.75 509.03 426.73 509.71
  L 426.47 517.28
  A 0.20 0.19 -61.9 0 1 426.12 517.39
  Q 423.35 513.55 425.73 509.77
  A 0.43 0.43 0.0 0 0 425.05 509.26
  Q 424.11 510.30 423.63 511.63
  A 0.44 0.44 0.0 0 1 422.78 511.39
  L 423.26 509.20
  A 0.42 0.41 -62.4 0 0 423.14 508.81
  L 422.89 508.57
  A 0.42 0.42 0.0 0 0 422.18 508.84
  L 422.02 511.14
  A 0.32 0.32 0.0 0 1 421.40 511.21
  L 420.74 509.02
  Q 420.59 508.52 420.08 508.44
  Q 419.94 508.42 419.79 508.44
  Q 419.08 508.56 419.46 509.18
  Q 421.94 513.18 418.96 516.75
  Q 418.58 517.19 419.13 517.40
  Q 419.52 517.55 419.92 517.32
  A 0.51 0.46 -6.2 0 0 420.11 517.11
  L 421.59 514.08
  A 0.28 0.28 0.0 0 1 422.12 514.21
  Z
  M 435.37 517.26
  C 435.60 515.33 434.18 515.04 435.36 512.84
  Q 435.62 512.35 435.45 511.83
  Q 434.63 509.32 431.84 509.76
  Q 431.36 509.84 431.35 510.32
  L 431.16 517.32
  A 2.02 2.02 0.0 0 0 434.32 519.04
  Q 435.23 518.42 435.37 517.26
  Z
  M 438.5200 519.8100
  A 4.80 2.44 90.0 0 0 440.9600 515.0100
  A 4.80 2.44 90.0 0 0 438.5200 510.2100
  A 4.80 2.44 90.0 0 0 436.0800 515.0100
  A 4.80 2.44 90.0 0 0 438.5200 519.8100
  Z"
/>
<path fill="#1e90ff" d="
  M 368.45 500.75
  Q 369.39 500.41 369.52 501.40
  C 371.21 514.42 373.66 528.07 374.57 540.59
  Q 375.64 555.42 376.01 570.03
  A 0.91 0.91 0.0 0 1 374.70 570.87
  L 354.98 561.21
  A 1.09 1.08 14.2 0 1 354.38 560.21
  L 356.24 506.00
  A 1.17 1.16 81.0 0 1 357.00 504.95
  L 368.45 500.75
  Z"
/>
<path fill="#fefeff" d="
  M 387.09 506.91
  L 389.26 507.42
  A 1.11 1.11 0.0 0 1 390.02 508.03
  C 392.10 512.53 390.09 517.89 384.09 515.32
  A 0.86 0.86 0.0 0 1 384.43 513.67
  L 387.63 513.64
  Q 388.39 513.64 388.41 512.88
  L 388.51 510.00
  Q 388.53 509.34 387.87 509.27
  L 385.22 509.00
  A 1.59 1.58 4.6 0 1 383.80 507.34
  L 384.03 503.16
  A 0.68 0.68 0.0 0 1 384.69 502.52
  L 389.36 502.41
  A 0.66 0.66 0.0 0 1 390.03 503.12
  L 389.97 504.06
  A 0.67 0.67 0.0 0 1 389.25 504.68
  L 387.47 504.53
  A 1.21 1.21 0.0 0 0 387.09 506.91
  Z"
/>
<path fill="#fefeff" d="
  M 405.20 510.42
  Q 405.94 509.43 406.27 508.25
  Q 406.57 507.19 407.43 506.97
  Q 408.14 506.79 407.83 507.46
  Q 406.06 511.30 408.08 515.36
  A 0.53 0.53 0.0 0 1 407.68 516.12
  L 407.38 516.16
  Q 406.78 516.24 406.67 515.64
  L 406.09 512.44
  A 0.55 0.55 0.0 0 0 405.01 512.46
  L 404.66 515.03
  Q 404.61 515.43 404.20 515.40
  L 401.22 515.19
  A 0.20 0.19 31.4 0 1 401.13 514.83
  Q 402.06 514.28 403.00 514.85
  Q 403.61 515.22 403.62 514.51
  L 403.74 506.99
  Q 403.75 506.47 404.26 506.56
  L 404.62 506.62
  A 0.36 0.36 0.0 0 1 404.92 507.00
  L 404.72 510.24
  Q 404.66 511.15 405.20 510.42
  Z"
/>
<path fill="#fefeff" d="
  M 409.90 513.13
  L 409.90 516.09
  A 0.28 0.27 6.8 0 1 409.56 516.35
  Q 409.38 516.30 409.22 516.26
  Q 408.97 516.19 408.94 515.92
  Q 408.59 511.71 409.17 507.53
  A 0.53 0.53 0.0 0 1 410.22 507.64
  L 410.04 510.26
  A 0.69 0.68 -80.2 0 0 410.53 510.97
  L 411.22 511.18
  Q 411.80 511.35 411.89 510.76
  L 412.34 507.70
  A 0.45 0.45 0.0 0 1 413.23 507.78
  L 413.04 516.31
  Q 413.03 516.96 412.44 516.68
  L 412.12 516.53
  A 0.38 0.37 -75.3 0 1 411.91 516.16
  L 412.12 513.21
  A 0.59 0.59 0.0 0 0 411.59 512.58
  L 410.62 512.48
  Q 409.90 512.40 409.90 513.13
  Z"
/>
<path fill="#fefeff" d="
  M 394.43 509.84
  Q 394.92 509.41 395.13 508.78
  A 0.76 0.76 0.0 0 1 395.81 508.25
  L 396.21 508.22
  Q 396.73 508.18 396.45 508.62
  Q 394.71 511.29 396.69 514.12
  A 0.44 0.44 0.0 0 1 396.23 514.80
  L 395.75 514.68
  Q 395.49 514.62 395.42 514.37
  L 394.83 512.34
  A 0.45 0.45 0.0 0 0 393.95 512.46
  L 393.93 514.24
  Q 393.93 514.67 393.50 514.61
  L 393.24 514.58
  Q 392.74 514.51 392.75 514.00
  L 392.84 508.20
  A 0.58 0.48 -50.3 0 1 393.88 508.00
  L 393.89 509.60
  Q 393.89 510.31 394.43 509.84
  Z"
/>
<path fill="#fefeff" d="
  M 415.99 513.78
  Q 415.65 515.05 415.14 516.42
  Q 414.99 516.82 414.74 516.93
  Q 414.51 517.02 414.29 516.92
  Q 413.90 516.75 414.04 516.35
  L 415.03 513.43
  A 0.94 0.92 -53.8 0 0 414.91 512.60
  Q 413.46 510.56 414.95 508.38
  A 1.01 1.01 0.0 0 1 415.88 507.95
  L 417.93 508.16
  Q 418.72 508.25 418.70 509.04
  L 418.54 516.65
  A 0.62 0.61 -89.0 0 1 417.93 517.25
  Q 417.71 517.24 417.49 517.24
  Q 417.08 517.23 417.12 516.82
  L 417.38 514.03
  A 0.71 0.71 0.0 0 0 415.99 513.78
  Z
  M 416.7017 512.0984
  A 1.43 1.08 82.7 0 0 417.5912 510.5428
  A 1.43 1.08 82.7 0 0 416.3383 509.2616
  A 1.43 1.08 82.7 0 0 415.4488 510.8172
  A 1.43 1.08 82.7 0 0 416.7017 512.0984
  Z"
/>
<path fill="#fefeff" d="
  M 397.11 514.33
  L 397.09 509.80
  A 1.76 1.76 0.0 0 1 400.02 508.47
  Q 401.37 509.66 400.55 511.24
  Q 400.32 511.67 400.53 512.11
  C 401.74 514.68 399.74 516.15 397.31 514.67
  A 0.43 0.42 15.2 0 1 397.11 514.33
  Z
  M 398.54 509.61
  Q 398.11 509.67 398.05 510.09
  L 398.00 510.44
  Q 397.92 510.95 398.44 510.98
  L 399.53 511.03
  A 0.48 0.48 0.0 0 0 400.00 510.38
  Q 399.64 509.45 398.54 509.61
  Z
  M 399.8407 513.7290
  A 1.17 0.92 37.3 0 0 399.4675 512.2882
  A 1.17 0.92 37.3 0 0 397.9793 512.3110
  A 1.17 0.92 37.3 0 0 398.3525 513.7518
  A 1.17 0.92 37.3 0 0 399.8407 513.7290
  Z"
/>
<rect fill="#1e90ff" x="-16.23" y="-0.87" transform="translate(338.65,515.38) rotate(-23.8)" width="32.46" height="1.74" rx="0.85"/>
<path fill="#fefeff" d="
  M 421.59 514.08
  L 420.11 517.11
  A 0.51 0.46 -6.2 0 1 419.92 517.32
  Q 419.52 517.55 419.13 517.40
  Q 418.58 517.19 418.96 516.75
  Q 421.94 513.18 419.46 509.18
  Q 419.08 508.56 419.79 508.44
  Q 419.94 508.42 420.08 508.44
  Q 420.59 508.52 420.74 509.02
  L 421.40 511.21
  A 0.32 0.32 0.0 0 0 422.02 511.14
  L 422.18 508.84
  A 0.42 0.42 0.0 0 1 422.89 508.57
  L 423.14 508.81
  A 0.42 0.41 -62.4 0 1 423.26 509.20
  L 422.78 511.39
  A 0.44 0.44 0.0 0 0 423.63 511.63
  Q 424.11 510.30 425.05 509.26
  A 0.43 0.43 0.0 0 1 425.73 509.77
  Q 423.35 513.55 426.12 517.39
  A 0.20 0.19 -61.9 0 0 426.47 517.28
  L 426.73 509.71
  Q 426.75 509.03 427.43 509.09
  Q 428.81 509.23 430.21 509.56
  A 0.78 0.65 -27.6 0 1 429.66 510.89
  Q 429.12 510.78 428.41 510.58
  Q 427.78 510.41 427.76 511.07
  L 427.73 512.27
  A 0.59 0.58 11.4 0 0 428.11 512.83
  L 429.78 513.48
  A 0.54 0.54 0.0 0 1 429.56 514.53
  L 428.33 514.48
  Q 427.60 514.44 427.63 515.17
  L 427.69 516.44
  A 0.61 0.60 -9.1 0 0 428.46 516.99
  Q 429.89 516.57 430.30 517.84
  A 0.56 0.55 -5.8 0 1 429.71 518.56
  L 425.47 518.11
  Q 424.96 518.06 424.78 517.58
  L 423.62 514.39
  A 0.32 0.32 0.0 0 0 423.00 514.49
  L 422.99 517.23
  Q 422.98 517.71 422.51 517.80
  Q 422.34 517.83 422.16 517.87
  Q 421.95 517.92 421.96 517.70
  L 422.12 514.21
  A 0.28 0.28 0.0 0 0 421.59 514.08
  Z"
/>
<ellipse fill="#1e90ff" cx="0.00" cy="0.00" transform="translate(416.52,510.68) rotate(82.7)" rx="1.43" ry="1.08"/>
<path fill="#1e90ff" d="
  M 398.54 509.61
  Q 399.64 509.45 400.00 510.38
  A 0.48 0.48 0.0 0 1 399.53 511.03
  L 398.44 510.98
  Q 397.92 510.95 398.00 510.44
  L 398.05 510.09
  Q 398.11 509.67 398.54 509.61
  Z"
/>
<path fill="#fefeff" d="
  M 435.37 517.26
  Q 435.23 518.42 434.32 519.04
  A 2.02 2.02 0.0 0 1 431.16 517.32
  L 431.35 510.32
  Q 431.36 509.84 431.84 509.76
  Q 434.63 509.32 435.45 511.83
  Q 435.62 512.35 435.36 512.84
  C 434.18 515.04 435.60 515.33 435.37 517.26
  Z
  M 433.3275 513.8058
  A 1.37 1.01 85.5 0 0 434.2269 512.3608
  A 1.37 1.01 85.5 0 0 433.1125 511.0742
  A 1.37 1.01 85.5 0 0 432.2131 512.5192
  A 1.37 1.01 85.5 0 0 433.3275 513.8058
  Z
  M 433.14 514.96
  A 0.66 0.66 0.0 0 0 432.27 515.57
  L 432.25 516.91
  A 0.90 0.89 60.6 0 0 433.92 517.38
  Q 434.97 515.59 433.14 514.96
  Z"
/>
<path fill="#fefeff" d="
  M 438.5200 519.8100
  A 4.80 2.44 90.0 0 1 436.0800 515.0100
  A 4.80 2.44 90.0 0 1 438.5200 510.2100
  A 4.80 2.44 90.0 0 1 440.9600 515.0100
  A 4.80 2.44 90.0 0 1 438.5200 519.8100
  Z
  M 438.4114 518.3395
  A 3.36 1.23 91.0 0 0 439.6998 515.0015
  A 3.36 1.23 91.0 0 0 438.5286 511.6205
  A 3.36 1.23 91.0 0 0 437.2402 514.9585
  A 3.36 1.23 91.0 0 0 438.4114 518.3395
  Z"
/>
<ellipse fill="#1e90ff" cx="0.00" cy="0.00" transform="translate(433.22,512.44) rotate(85.5)" rx="1.37" ry="1.01"/>
<ellipse fill="#1e90ff" cx="0.00" cy="0.00" transform="translate(438.47,514.98) rotate(91.0)" rx="3.36" ry="1.23"/>
<ellipse fill="#1e90ff" cx="0.00" cy="0.00" transform="translate(398.91,513.02) rotate(37.3)" rx="1.17" ry="0.92"/>
<path fill="#1e90ff" d="
  M 433.14 514.96
  Q 434.97 515.59 433.92 517.38
  A 0.90 0.89 60.6 0 1 432.25 516.91
  L 432.27 515.57
  A 0.66 0.66 0.0 0 1 433.14 514.96
  Z"
/>
<path fill="#1e90ff" d="
  M 449.77 547.28
  Q 449.55 547.45 449.30 547.78
  Q 440.00 559.88 430.87 572.11
  Q 429.61 573.81 427.96 574.84
  A 0.32 0.32 0.0 0 1 427.53 574.38
  Q 437.81 560.07 448.21 545.97
  Q 448.97 544.95 447.14 545.54
  A 1.03 1.03 0.0 0 0 446.62 545.91
  L 425.19 574.19
  Q 424.87 574.61 424.34 574.60
  Q 414.28 574.39 404.35 573.86
  C 398.22 573.54 391.78 570.63 385.87 568.96
  A 2.76 2.76 0.0 0 1 383.88 566.52
  L 380.37 521.19
  Q 380.33 520.58 380.94 520.63
  L 447.97 525.79
  Q 448.41 525.82 448.50 526.25
  C 449.76 532.61 451.36 538.93 452.02 545.32
  Q 453.28 557.61 454.50 569.73
  A 1.12 1.11 -11.1 0 1 453.69 570.92
  Q 447.39 572.76 441.00 574.63
  C 437.94 575.52 435.37 575.20 432.35 574.98
  Q 431.62 574.92 432.05 574.32
  L 450.67 548.17
  A 0.64 0.64 0.0 0 0 449.77 547.28
  Z"
/>
<path fill="#1e90ff" d="
  M 322.13 524.05
  L 319.89 564.90
  A 0.71 0.71 0.0 0 1 319.29 565.56
  L 308.82 567.20
  A 0.71 0.71 0.0 0 1 308.00 566.48
  L 308.96 532.49
  A 0.71 0.71 0.0 0 1 309.25 531.93
  L 321.00 523.43
  A 0.71 0.71 0.0 0 1 322.13 524.05
  Z"
/>
<path fill="#1e90ff" d="
  M 307.33 533.86
  L 306.38 567.36
  A 0.30 0.30 0.0 0 1 306.12 567.65
  L 296.05 569.27
  A 0.30 0.30 0.0 0 1 295.70 568.96
  L 297.24 540.49
  A 0.30 0.30 0.0 0 1 297.37 540.26
  L 306.86 533.60
  A 0.30 0.30 0.0 0 1 307.33 533.86
  Z"
/>
<path fill="#1e90ff" d="
  M 416.75 591.75
  L 438.23 591.75
  Q 438.72 591.75 438.71 591.27
  L 438.43 579.86
  Q 438.42 579.31 437.86 579.30
  L 429.20 579.12
  Q 428.67 579.11 428.67 578.58
  Q 428.68 577.81 429.52 577.74
  Q 432.99 577.41 439.36 577.94
  Q 439.91 577.98 439.93 578.54
  L 440.29 592.22
  A 1.01 1.00 -0.8 0 1 439.28 593.25
  L 416.02 593.24
  A 1.28 1.27 89.1 0 1 414.75 592.00
  L 414.36 578.05
  Q 414.35 577.55 414.85 577.46
  Q 418.23 576.85 421.74 577.29
  A 0.74 0.74 0.0 0 1 421.64 578.77
  L 416.49 578.72
  Q 415.96 578.72 415.97 579.25
  L 416.23 591.24
  Q 416.24 591.75 416.75 591.75
  Z"
/>
<path fill="#1e90ff" d="
  M 387.07 579.43
  C 388.59 576.98 392.11 577.07 393.75 579.81
  Q 398.66 588.03 399.94 590.51
  Q 400.28 591.18 399.99 592.71
  C 398.57 600.15 389.67 595.60 387.30 591.82
  C 385.84 589.48 385.60 581.80 387.07 579.43
  Z
  M 392.43 579.79
  C 390.66 577.10 387.21 579.32 387.25 582.00
  C 387.31 586.01 386.38 591.01 390.39 593.61
  C 392.92 595.25 397.74 597.63 399.07 593.12
  Q 399.45 591.81 398.50 590.03
  Q 395.70 584.76 392.43 579.79
  Z"
/>
<path fill="#fefeff" d="
  M 299.87 601.71
  L 298.41 610.97
  Q 298.31 611.66 297.70 611.32
  L 290.33 607.25
  Q 289.80 606.96 289.80 606.35
  L 289.84 579.16
  Q 289.84 578.66 290.34 578.66
  L 321.68 578.67
  Q 322.31 578.67 322.33 579.30
  L 323.91 624.72
  A 0.60 0.60 0.0 0 1 323.06 625.28
  C 322.44 624.99 321.86 624.36 321.69 623.64
  Q 319.81 615.81 318.70 607.83
  Q 318.63 607.39 318.22 607.23
  L 301.84 600.59
  A 1.45 1.45 0.0 0 0 299.87 601.71
  Z
  M 292.4804 600.5372
  A 0.76 0.76 0.0 0 0 291.6767 599.8237
  L 291.6168 599.8272
  A 0.76 0.76 0.0 0 0 290.9032 600.6310
  L 291.1796 605.2828
  A 0.76 0.76 0.0 0 0 291.9833 605.9963
  L 292.0432 605.9928
  A 0.76 0.76 0.0 0 0 292.7568 605.1890
  L 292.4804 600.5372
  Z"
/>
<path fill="#fefeff" d="
  M 449.05 600.11
  Q 453.83 597.26 459.00 594.98
  Q 459.40 594.80 459.41 595.23
  L 459.76 631.93
  A 2.51 2.51 0.0 0 1 457.32 634.47
  L 440.93 634.89
  Q 440.45 634.90 440.49 634.43
  L 441.56 621.52
  Q 441.61 620.99 442.14 620.99
  Q 448.52 620.95 452.23 620.52
  C 456.57 620.02 456.09 613.95 453.89 611.74
  Q 452.66 610.51 450.21 610.49
  Q 426.59 610.29 403.00 610.18
  Q 400.44 610.17 398.79 612.32
  C 396.04 615.92 397.74 620.46 401.93 622.04
  Q 402.33 622.19 402.32 622.61
  L 402.00 635.97
  Q 401.99 636.52 401.44 636.56
  Q 395.21 636.95 388.97 637.14
  C 379.43 637.44 370.23 639.13 360.78 640.07
  C 358.12 640.33 356.67 639.43 354.54 638.11
  Q 354.14 637.87 354.12 637.39
  Q 352.79 609.20 351.42 581.00
  Q 351.35 579.64 351.57 579.21
  Q 352.15 578.06 353.25 578.72
  Q 373.84 591.00 395.22 601.09
  C 398.07 602.43 401.20 599.25 403.35 597.69
  Q 403.72 597.42 404.18 597.42
  L 439.57 598.17
  Q 440.09 598.18 440.43 598.56
  Q 442.39 600.77 445.13 601.17
  Q 446.87 601.42 449.05 600.11
  Z
  M 357.5418 585.3584
  A 1.65 1.65 0.0 0 0 356.0419 583.5709
  L 354.3484 583.4227
  A 1.65 1.65 0.0 0 0 352.5608 584.9226
  L 352.5382 585.1816
  A 1.65 1.65 0.0 0 0 354.0381 586.9691
  L 355.7316 587.1173
  A 1.65 1.65 0.0 0 0 357.5192 585.6174
  L 357.5418 585.3584
  Z"
/>
<path fill="#fefeff" d="
  M 387.25 582.00
  C 387.21 579.32 390.66 577.10 392.43 579.79
  Q 395.70 584.76 398.50 590.03
  Q 399.45 591.81 399.07 593.12
  C 397.74 597.63 392.92 595.25 390.39 593.61
  C 386.38 591.01 387.31 586.01 387.25 582.00
  Z
  M 390.0764 585.0188
  A 2.22 1.32 91.9 0 0 391.4693 582.8438
  A 2.22 1.32 91.9 0 0 390.2236 580.5812
  A 2.22 1.32 91.9 0 0 388.8307 582.7562
  A 2.22 1.32 91.9 0 0 390.0764 585.0188
  Z
  M 391.5148 591.8384
  A 2.86 2.25 88.1 0 0 393.6688 588.9054
  A 2.86 2.25 88.1 0 0 391.3252 586.1216
  A 2.86 2.25 88.1 0 0 389.1712 589.0546
  A 2.86 2.25 88.1 0 0 391.5148 591.8384
  Z
  M 395.8014 593.8552
  A 1.93 1.37 97.1 0 0 397.3995 592.1093
  A 1.93 1.37 97.1 0 0 396.2786 590.0248
  A 1.93 1.37 97.1 0 0 394.6805 591.7707
  A 1.93 1.37 97.1 0 0 395.8014 593.8552
  Z"
/>
<path fill="#1e90ff" d="
  M 444.08 590.07
  C 444.75 587.81 447.14 583.21 448.94 580.57
  A 2.45 2.37 -87.4 0 1 449.69 579.86
  Q 452.66 578.06 454.12 582.04
  C 456.64 588.93 456.24 594.93 447.92 596.87
  C 443.62 597.88 443.33 592.66 444.08 590.07
  Z
  M 450.72 580.37
  C 448.22 581.80 445.73 588.39 444.86 591.08
  C 444.18 593.19 444.56 595.07 446.51 596.11
  Q 446.95 596.35 447.43 596.21
  C 450.70 595.28 454.16 593.39 454.42 589.57
  Q 454.72 585.25 452.86 581.07
  A 1.52 1.51 62.9 0 0 450.72 580.37
  Z"
/>
<path fill="#fefeff" d="
  M 444.86 591.08
  C 445.73 588.39 448.22 581.80 450.72 580.37
  A 1.52 1.51 62.9 0 1 452.86 581.07
  Q 454.72 585.25 454.42 589.57
  C 454.16 593.39 450.70 595.28 447.43 596.21
  Q 446.95 596.35 446.51 596.11
  C 444.56 595.07 444.18 593.19 444.86 591.08
  Z
  M 451.3569 585.5395
  A 2.06 1.29 91.2 0 0 452.6897 583.5070
  A 2.06 1.29 91.2 0 0 451.4431 581.4205
  A 2.06 1.29 91.2 0 0 450.1103 583.4530
  A 2.06 1.29 91.2 0 0 451.3569 585.5395
  Z
  M 450.8562 591.9885
  A 2.40 1.93 92.0 0 0 452.8688 589.6574
  A 2.40 1.93 92.0 0 0 451.0238 587.1915
  A 2.40 1.93 92.0 0 0 449.0112 589.5226
  A 2.40 1.93 92.0 0 0 450.8562 591.9885
  Z
  M 446.8389 594.1693
  A 1.80 1.32 100.6 0 0 448.4675 592.6428
  A 1.80 1.32 100.6 0 0 447.5011 590.6307
  A 1.80 1.32 100.6 0 0 445.8725 592.1572
  A 1.80 1.32 100.6 0 0 446.8389 594.1693
  Z"
/>
<ellipse fill="#1e90ff" cx="0.00" cy="0.00" transform="translate(390.15,582.80) rotate(91.9)" rx="2.22" ry="1.32"/>
<ellipse fill="#1e90ff" cx="0.00" cy="0.00" transform="translate(451.40,583.48) rotate(91.2)" rx="2.06" ry="1.29"/>
<rect fill="#1e90ff" x="-2.50" y="-1.78" transform="translate(355.04,585.27) rotate(5.0)" width="5.00" height="3.56" rx="1.65"/>
<ellipse fill="#1e90ff" cx="0.00" cy="0.00" transform="translate(391.42,588.98) rotate(88.1)" rx="2.86" ry="2.25"/>
<ellipse fill="#1e90ff" cx="0.00" cy="0.00" transform="translate(450.94,589.59) rotate(92.0)" rx="2.40" ry="1.93"/>
<ellipse fill="#1e90ff" cx="0.00" cy="0.00" transform="translate(396.04,591.94) rotate(97.1)" rx="1.93" ry="1.37"/>
<ellipse fill="#1e90ff" cx="0.00" cy="0.00" transform="translate(447.17,592.40) rotate(100.6)" rx="1.80" ry="1.32"/>
<rect fill="#1e90ff" x="-0.79" y="-3.09" transform="translate(291.83,602.91) rotate(-3.4)" width="1.58" height="6.18" rx="0.76"/>
<path fill="#fefeff" d="
  M 319.01 622.76
  C 312.83 619.50 306.72 615.94 300.60 612.56
  Q 300.05 612.26 299.98 611.87
  Q 299.93 611.56 300.12 611.28
  A 0.58 0.57 29.7 0 1 300.87 611.08
  Q 311.94 616.59 318.58 620.62
  Q 319.58 621.23 319.54 622.46
  Q 319.51 623.02 319.01 622.76
  Z"
/>
<path fill="#fefeff" d="
  M 438.75 635.05
  L 403.80 636.52
  A 0.32 0.32 0.0 0 1 403.47 636.19
  L 403.86 622.57
  A 0.32 0.32 0.0 0 1 404.17 622.26
  L 439.69 621.11
  A 0.32 0.32 0.0 0 1 440.01 621.45
  L 439.06 634.76
  A 0.32 0.32 0.0 0 1 438.75 635.05
  Z"
/>
</svg>
